<svg width="372" height="400" viewBox="0 0 372 400" fill="none" xmlns="http://www.w3.org/2000/svg">
<g clip-path="url(#clip0_65_3)">
<path d="M235.971 226.947L75.1688 268.327C69.7142 269.724 63.9278 268.902 59.079 266.041C54.2302 263.18 50.715 258.514 49.3046 253.066L0.673871 64.3445C-0.724182 58.8936 0.0984933 53.1111 2.96142 48.2656C5.82435 43.4201 10.4937 39.9072 15.9451 38.4978L165.545 3.05176e-05L203.836 17.1299L251.242 201.1C252.64 206.551 251.818 212.334 248.955 217.179C246.092 222.025 241.422 225.537 235.971 226.947Z" fill="#F2F2F2"/>
<path d="M17.4694 44.4148C13.5873 45.4185 10.2622 47.92 8.2234 51.3706C6.18464 54.8212 5.5988 58.9391 6.59439 62.8208L55.2252 251.543C56.2295 255.422 58.7327 258.745 62.1857 260.782C65.6386 262.82 69.7592 263.405 73.6436 262.41L234.446 221.03C238.328 220.026 241.653 217.525 243.692 214.074C245.73 210.623 246.316 206.505 245.321 202.624L198.649 21.5042L164.998 6.44998L17.4694 44.4148Z" fill="white"/>
<path d="M203.427 18.1034L178.541 24.5076C176.724 24.9752 174.796 24.7023 173.18 23.7491C171.565 22.7959 170.394 21.2405 169.926 19.4249L165.193 1.05663C165.172 0.97621 165.175 0.891585 165.2 0.812457C165.225 0.733328 165.272 0.662902 165.336 0.60925C165.399 0.555598 165.476 0.520894 165.559 0.509119C165.641 0.497344 165.725 0.508972 165.801 0.542673L203.496 17.2718C203.58 17.3091 203.65 17.3715 203.697 17.4504C203.744 17.5293 203.765 17.6208 203.757 17.7122C203.749 17.8036 203.714 17.8904 203.654 17.9605C203.595 18.0306 203.516 18.0806 203.427 18.1034Z" fill="#F2F2F2"/>
<path d="M190.334 179.268L117.123 198.108C116.674 198.224 116.205 198.25 115.745 198.185C115.286 198.119 114.843 197.965 114.443 197.729C114.043 197.493 113.694 197.18 113.414 196.809C113.135 196.438 112.932 196.016 112.816 195.566C112.7 195.117 112.674 194.649 112.739 194.19C112.805 193.73 112.96 193.288 113.196 192.888C113.432 192.488 113.745 192.139 114.116 191.86C114.487 191.581 114.91 191.378 115.359 191.262L188.57 172.422C189.02 172.307 189.488 172.28 189.948 172.346C190.408 172.411 190.851 172.566 191.25 172.802C191.65 173.038 192 173.35 192.279 173.721C192.558 174.092 192.761 174.514 192.877 174.964C192.993 175.413 193.019 175.881 192.954 176.341C192.889 176.8 192.734 177.242 192.498 177.642C192.262 178.042 191.949 178.391 191.578 178.67C191.207 178.949 190.784 179.152 190.334 179.268Z" fill="#CCCCCC"/>
<path d="M207.439 187.184L120.1 209.66C119.192 209.893 118.228 209.757 117.42 209.28C116.612 208.804 116.027 208.026 115.793 207.118C115.559 206.21 115.696 205.247 116.173 204.44C116.649 203.633 117.428 203.048 118.336 202.814L205.675 180.338C206.583 180.106 207.547 180.243 208.354 180.719C209.161 181.196 209.746 181.973 209.979 182.88C210.213 183.788 210.077 184.751 209.601 185.558C209.124 186.364 208.347 186.949 207.439 187.184Z" fill="#CCCCCC"/>
<path d="M87.2428 220.799C94.1467 220.799 99.7435 215.206 99.7435 208.306C99.7435 201.407 94.1467 195.814 87.2428 195.814C80.3388 195.814 74.7421 201.407 74.7421 208.306C74.7421 215.206 80.3388 220.799 87.2428 220.799Z" fill="#E6E6E6"/>
<path d="M182.55 146.575L85.3184 171.587C82.5084 172.306 79.5275 171.882 77.0298 170.408C74.5321 168.934 72.7214 166.53 71.9951 163.724L51.6191 84.6208C50.8991 81.8127 51.3232 78.8338 52.7982 76.3378C54.2733 73.8417 56.6789 72.0323 59.4873 71.3065L156.719 46.2945C159.529 45.575 162.51 45.9988 165.007 47.4729C167.505 48.9469 169.316 51.3509 170.042 54.1574L190.418 133.26C191.138 136.069 190.714 139.047 189.239 141.543C187.764 144.039 185.358 145.849 182.55 146.575Z" fill="white"/>
<path d="M182.55 146.575L85.3184 171.587C82.5084 172.306 79.5275 171.882 77.0298 170.408C74.5321 168.934 72.7214 166.53 71.9951 163.724L51.6191 84.6208C50.8991 81.8127 51.3232 78.8338 52.7982 76.3378C54.2733 73.8417 56.6789 72.0323 59.4873 71.3065L156.719 46.2945C159.529 45.575 162.51 45.9988 165.007 47.4729C167.505 48.9469 169.316 51.3509 170.042 54.1574L190.418 133.26C191.138 136.069 190.714 139.047 189.239 141.543C187.764 144.039 185.358 145.849 182.55 146.575ZM59.8082 72.5522C57.3302 73.1927 55.2076 74.7892 53.9061 76.9916C52.6046 79.194 52.2304 81.8224 52.8656 84.3001L73.2417 163.403C73.8826 165.879 75.4802 168.001 77.6841 169.301C79.8879 170.602 82.5181 170.976 84.9975 170.341L182.229 145.329C184.707 144.689 186.83 143.092 188.131 140.89C189.433 138.687 189.807 136.059 189.172 133.581L168.795 54.4781C168.155 52.0018 166.557 49.8806 164.353 48.58C162.149 47.2793 159.519 46.9054 157.04 47.5402L59.8082 72.5522Z" fill="#E6E6E6"/>
<path d="M151.786 72.892L102.715 85.5153C102.286 85.635 101.827 85.5874 101.432 85.3822C101.037 85.1771 100.734 84.8296 100.585 84.41C100.516 84.1908 100.492 83.9598 100.515 83.7311C100.538 83.5025 100.608 83.2809 100.719 83.0799C100.831 82.8789 100.982 82.7028 101.164 82.5622C101.346 82.4216 101.555 82.3196 101.778 82.2623L151.729 69.4126C153.747 70.4343 153.217 72.5239 151.786 72.892Z" fill="#F2F2F2"/>
<path d="M154.002 81.4937L104.93 94.1169C104.501 94.2366 104.043 94.1891 103.647 93.9839C103.252 93.7787 102.95 93.4312 102.801 93.0116C102.732 92.7925 102.708 92.5615 102.731 92.3328C102.754 92.1041 102.823 91.8825 102.935 91.6816C103.047 91.4806 103.198 91.3044 103.38 91.1639C103.562 91.0233 103.771 90.9213 103.993 90.864L153.945 78.0143C155.963 79.036 155.432 81.1256 154.002 81.4937Z" fill="#F2F2F2"/>
<path d="M95.5837 101.743L80.6076 105.596C80.1185 105.721 79.5996 105.647 79.1648 105.391C78.73 105.134 78.4149 104.716 78.2885 104.227L73.7392 86.5661C73.6138 86.0773 73.6876 85.5588 73.9444 85.1243C74.2011 84.6898 74.6199 84.3749 75.1087 84.2486L90.0849 80.3961C90.574 80.271 91.0928 80.3448 91.5275 80.6014C91.9622 80.8579 92.2774 81.2763 92.4039 81.7647L96.9532 99.4259C97.0786 99.9147 97.0048 100.433 96.7481 100.868C96.4913 101.302 96.0726 101.617 95.5837 101.743Z" fill="#E6E6E6"/>
<path d="M158.396 99.1424L83.5036 118.408C83.0746 118.527 82.6161 118.48 82.2208 118.275C81.8256 118.07 81.523 117.722 81.3743 117.302C81.3051 117.083 81.2813 116.852 81.3043 116.624C81.3274 116.395 81.3968 116.173 81.5084 115.972C81.62 115.771 81.7714 115.595 81.9534 115.455C82.1353 115.314 82.344 115.212 82.5668 115.155L158.34 95.6628C160.357 96.6845 159.826 98.7743 158.396 99.1424Z" fill="#F2F2F2"/>
<path d="M160.612 107.747L85.7199 127.012C85.2909 127.132 84.8325 127.084 84.4372 126.879C84.0419 126.674 83.7393 126.326 83.5906 125.907C83.5214 125.687 83.4976 125.456 83.5207 125.228C83.5437 124.999 83.6132 124.778 83.7248 124.577C83.8363 124.376 83.9877 124.199 84.1697 124.059C84.3517 123.918 84.5604 123.816 84.7831 123.759L160.556 104.267C162.574 105.289 162.043 107.378 160.612 107.747Z" fill="#F2F2F2"/>
<path d="M162.827 116.345L87.9348 135.61C87.5058 135.73 87.0473 135.683 86.6521 135.477C86.2568 135.272 85.9542 134.925 85.8055 134.505C85.7363 134.286 85.7125 134.055 85.7356 133.826C85.7586 133.598 85.8281 133.376 85.9396 133.175C86.0512 132.974 86.2026 132.798 86.3846 132.657C86.5666 132.517 86.7753 132.415 86.998 132.357L162.771 112.865C164.789 113.887 164.258 115.977 162.827 116.345Z" fill="#F2F2F2"/>
<path d="M165.043 124.949L90.151 144.214C89.722 144.334 89.2635 144.286 88.8683 144.081C88.473 143.876 88.1704 143.528 88.0217 143.109C87.9525 142.89 87.9287 142.659 87.9517 142.43C87.9748 142.201 88.0442 141.98 88.1558 141.779C88.2674 141.578 88.4188 141.402 88.6008 141.261C88.7827 141.12 88.9914 141.018 89.2142 140.961L164.987 121.469C167.005 122.491 166.474 124.581 165.043 124.949Z" fill="#F2F2F2"/>
<path d="M167.258 133.548L92.3661 152.813C91.937 152.933 91.4786 152.885 91.0833 152.68C90.688 152.475 90.3854 152.127 90.2367 151.708C90.1675 151.489 90.1437 151.258 90.1668 151.029C90.1899 150.8 90.2593 150.579 90.3709 150.378C90.4825 150.177 90.6338 150.001 90.8158 149.86C90.9978 149.72 91.2065 149.618 91.4292 149.56L167.202 130.068C169.22 131.09 168.689 133.18 167.258 133.548Z" fill="#F2F2F2"/>
<path d="M88.165 212.685C87.8928 212.756 87.605 212.736 87.345 212.629L87.3289 212.622L83.9235 211.179C83.7655 211.113 83.6221 211.015 83.5018 210.893C83.3814 210.771 83.2863 210.626 83.222 210.467C83.1577 210.308 83.1254 210.138 83.1269 209.966C83.1285 209.795 83.1638 209.625 83.231 209.467C83.2981 209.31 83.3958 209.167 83.5183 209.046C83.6408 208.926 83.7858 208.832 83.945 208.768C84.1043 208.704 84.2746 208.672 84.4462 208.673C84.6178 208.675 84.7874 208.711 84.9452 208.778L87.1519 209.716L90.0435 202.918C90.1105 202.761 90.208 202.618 90.3303 202.498C90.4526 202.378 90.5974 202.283 90.7563 202.219C90.9153 202.155 91.0853 202.123 91.2566 202.125C91.428 202.126 91.5974 202.161 91.7551 202.228L91.7382 202.273L91.7562 202.228C92.0746 202.364 92.326 202.621 92.4554 202.941C92.5848 203.262 92.5815 203.621 92.4464 203.939L89.0444 211.932C88.9655 212.116 88.8453 212.28 88.6929 212.41C88.5405 212.541 88.3601 212.634 88.1658 212.684L88.165 212.685Z" fill="white"/>
<path d="M297.648 298.864H131.6C125.969 298.857 120.57 296.619 116.589 292.64C112.607 288.661 110.367 283.266 110.361 277.639V82.7607C110.367 77.1336 112.607 71.7388 116.589 67.7598C120.57 63.7809 125.969 61.5427 131.6 61.5363H286.08L318.886 87.6674V277.639C318.88 283.266 316.64 288.661 312.659 292.64C308.677 296.619 303.279 298.857 297.648 298.864Z" fill="#E6E6E6"/>
<path d="M131.6 67.6464C127.59 67.6509 123.745 69.2447 120.91 72.0783C118.075 74.9118 116.48 78.7535 116.475 82.7607V277.639C116.48 281.647 118.075 285.488 120.91 288.322C123.745 291.155 127.59 292.749 131.6 292.754H297.648C301.658 292.749 305.502 291.155 308.337 288.322C311.173 285.488 312.768 281.647 312.772 277.639V90.6109L283.942 67.6464H131.6Z" fill="white"/>
<path d="M265.351 124.312H189.752C188.814 124.312 187.914 123.939 187.251 123.277C186.588 122.614 186.215 121.715 186.215 120.777C186.215 119.84 186.588 118.941 187.251 118.278C187.914 117.615 188.814 117.243 189.752 117.243H265.351C266.289 117.243 267.189 117.615 267.852 118.278C268.516 118.941 268.888 119.84 268.888 120.777C268.888 121.715 268.516 122.614 267.852 123.277C267.189 123.939 266.289 124.312 265.351 124.312Z" fill="#6C63FF"/>
<path d="M279.941 136.241H189.752C188.815 136.239 187.916 135.866 187.254 135.204C186.592 134.541 186.22 133.643 186.22 132.706C186.22 131.77 186.592 130.871 187.254 130.209C187.916 129.546 188.815 129.173 189.752 129.172H279.941C280.406 129.171 280.866 129.262 281.296 129.439C281.725 129.617 282.116 129.877 282.445 130.205C282.774 130.533 283.035 130.923 283.213 131.352C283.391 131.782 283.482 132.242 283.482 132.706C283.482 133.171 283.391 133.631 283.213 134.06C283.035 134.489 282.774 134.879 282.445 135.207C282.116 135.535 281.725 135.796 281.296 135.973C280.866 136.15 280.406 136.241 279.941 136.241Z" fill="#6C63FF"/>
<path d="M265.352 170.699H189.755C188.817 170.699 187.917 171.072 187.254 171.734C186.591 172.397 186.218 173.296 186.218 174.233C186.218 175.171 186.591 176.07 187.254 176.732C187.917 177.395 188.817 177.768 189.755 177.768H265.352C266.29 177.768 267.189 177.395 267.853 176.732C268.516 176.07 268.888 175.171 268.888 174.233C268.888 173.296 268.516 172.397 267.853 171.734C267.189 171.072 266.29 170.699 265.352 170.699Z" fill="#CCCCCC"/>
<path d="M279.942 182.63H189.755C188.817 182.63 187.917 183.002 187.254 183.665C186.591 184.328 186.218 185.227 186.218 186.164C186.218 187.101 186.591 188 187.254 188.663C187.917 189.326 188.817 189.698 189.755 189.698H279.942C280.88 189.698 281.78 189.326 282.443 188.663C283.106 188 283.479 187.101 283.479 186.164C283.479 185.227 283.106 184.328 282.443 183.665C281.78 183.002 280.88 182.63 279.942 182.63Z" fill="#CCCCCC"/>
<path d="M265.351 231.228H189.752C188.814 231.228 187.914 230.856 187.251 230.193C186.588 229.53 186.215 228.631 186.215 227.694C186.215 226.757 186.588 225.858 187.251 225.195C187.914 224.532 188.814 224.16 189.752 224.16H265.351C266.289 224.16 267.189 224.532 267.852 225.195C268.516 225.858 268.888 226.757 268.888 227.694C268.888 228.631 268.516 229.53 267.852 230.193C267.189 230.856 266.289 231.228 265.351 231.228Z" fill="#CCCCCC"/>
<path d="M279.941 243.157H189.752C188.815 243.156 187.916 242.783 187.254 242.12C186.592 241.457 186.22 240.559 186.22 239.623C186.22 238.686 186.592 237.788 187.254 237.125C187.916 236.462 188.815 236.089 189.752 236.088H279.941C280.406 236.088 280.866 236.179 281.296 236.356C281.725 236.533 282.116 236.793 282.445 237.122C282.774 237.45 283.035 237.84 283.213 238.269C283.391 238.698 283.482 239.158 283.482 239.623C283.482 240.087 283.391 240.547 283.213 240.976C283.035 241.405 282.774 241.795 282.445 242.124C282.116 242.452 281.725 242.712 281.296 242.889C280.866 243.067 280.406 243.158 279.941 243.157Z" fill="#CCCCCC"/>
<path d="M158.271 139.234C165.174 139.234 170.771 133.641 170.771 126.742C170.771 119.842 165.174 114.25 158.271 114.25C151.367 114.25 145.77 119.842 145.77 126.742C145.77 133.641 151.367 139.234 158.271 139.234Z" fill="#6C63FF"/>
<path d="M157.032 131.507C156.751 131.508 156.477 131.417 156.252 131.248L156.238 131.238L153.3 128.992C153.164 128.888 153.049 128.758 152.963 128.609C152.877 128.461 152.821 128.297 152.798 128.127C152.775 127.957 152.786 127.784 152.831 127.618C152.875 127.453 152.952 127.297 153.056 127.161C153.16 127.025 153.291 126.911 153.439 126.825C153.588 126.739 153.752 126.683 153.923 126.661C154.093 126.639 154.266 126.65 154.432 126.695C154.597 126.74 154.753 126.816 154.889 126.921L156.792 128.379L161.288 122.517C161.392 122.381 161.522 122.267 161.671 122.181C161.819 122.096 161.983 122.04 162.153 122.017C162.323 121.995 162.496 122.006 162.661 122.051C162.827 122.095 162.982 122.171 163.118 122.275L163.09 122.314L163.119 122.276C163.393 122.486 163.573 122.797 163.618 123.14C163.663 123.483 163.571 123.83 163.36 124.104L158.071 130.997C157.949 131.156 157.792 131.284 157.612 131.372C157.432 131.461 157.233 131.506 157.033 131.506L157.032 131.507Z" fill="white"/>
<path d="M172.056 180.199C172.057 181.839 171.734 183.464 171.106 184.98C170.478 186.496 169.558 187.874 168.397 189.034C167.236 190.195 165.858 191.115 164.342 191.744C162.825 192.372 161.199 192.695 159.557 192.695C159.45 192.698 159.343 192.693 159.236 192.683C156.778 192.62 154.393 191.834 152.38 190.423C150.367 189.012 148.814 187.04 147.917 184.752C147.021 182.464 146.819 179.963 147.337 177.561C147.856 175.159 149.072 172.963 150.833 171.249C152.594 169.534 154.822 168.376 157.238 167.92C159.654 167.465 162.151 167.731 164.416 168.686C166.681 169.642 168.614 171.243 169.973 173.291C171.332 175.339 172.057 177.742 172.056 180.199Z" fill="#CCCCCC"/>
<path d="M158.271 246.151C165.174 246.151 170.771 240.558 170.771 233.658C170.771 226.759 165.174 221.166 158.271 221.166C151.367 221.166 145.77 226.759 145.77 233.658C145.77 240.558 151.367 246.151 158.271 246.151Z" fill="#CCCCCC"/>
<path d="M318.248 88.5083H292.55C290.674 88.5083 288.874 87.7636 287.548 86.4379C286.221 85.1122 285.476 83.3142 285.476 81.4395V62.4719C285.476 62.3889 285.499 62.3075 285.544 62.2372C285.588 62.1668 285.651 62.1103 285.726 62.0742C285.8 62.038 285.884 62.0237 285.967 62.0328C286.049 62.0419 286.128 62.0741 286.193 62.1256L318.522 87.7202C318.594 87.7772 318.647 87.8551 318.672 87.9432C318.698 88.0313 318.696 88.1251 318.665 88.2118C318.635 88.2984 318.579 88.3735 318.504 88.4266C318.429 88.4798 318.34 88.5083 318.248 88.5083Z" fill="#CCCCCC"/>
<path d="M172.056 180.199C172.057 181.839 171.734 183.464 171.106 184.98C170.478 186.496 169.558 187.874 168.397 189.034C167.236 190.195 165.858 191.115 164.342 191.744C162.825 192.372 161.199 192.695 159.557 192.695C159.45 192.698 159.343 192.693 159.236 192.683C157.621 188.657 156.998 184.303 157.42 179.986C157.843 175.67 159.297 171.519 161.662 167.882C164.57 168.38 167.208 169.89 169.11 172.143C171.012 174.397 172.055 177.25 172.056 180.199Z" fill="#6C63FF"/>
<path d="M186.215 174.237C186.217 173.299 186.59 172.4 187.254 171.737C187.917 171.074 188.817 170.701 189.755 170.699H208.593C209.693 172.936 210.475 175.315 210.916 177.768H189.755C188.817 177.767 187.918 177.395 187.254 176.734C186.591 176.072 186.217 175.174 186.215 174.237Z" fill="#6C63FF"/>
<path d="M211.354 182.63C211.355 185.017 211.039 187.394 210.414 189.698H189.755C188.817 189.698 187.917 189.326 187.254 188.663C186.591 188 186.218 187.101 186.218 186.164C186.218 185.227 186.591 184.328 187.254 183.665C187.917 183.002 188.817 182.63 189.755 182.63H211.354Z" fill="#6C63FF"/>
<path d="M257.964 226.222C257.431 227.096 256.572 227.722 255.577 227.963C254.582 228.204 253.531 228.04 252.657 227.507L207.602 200.044C207.169 199.78 206.792 199.433 206.493 199.024C206.194 198.614 205.979 198.15 205.86 197.658C205.74 197.165 205.719 196.654 205.798 196.153C205.876 195.653 206.052 195.172 206.316 194.74C206.58 194.307 206.927 193.931 207.337 193.632C207.746 193.333 208.211 193.118 208.704 192.999C209.196 192.879 209.708 192.858 210.209 192.936C210.71 193.015 211.191 193.191 211.624 193.455L256.679 220.918C257.553 221.451 258.18 222.309 258.421 223.304C258.662 224.298 258.498 225.348 257.964 226.222Z" fill="#3F3D56"/>
<path d="M212.91 198.759C209.728 203.971 205.071 208.124 199.527 210.692C193.984 213.26 187.803 214.127 181.766 213.184C175.73 212.242 170.108 209.531 165.613 205.396C161.118 201.26 157.95 195.886 156.512 189.951C155.073 184.017 155.428 177.79 157.531 172.057C159.634 166.324 163.39 161.343 168.326 157.744C173.262 154.145 179.155 152.089 185.259 151.837C191.364 151.585 197.407 153.147 202.623 156.327C209.61 160.597 214.618 167.462 216.546 175.417C218.474 183.372 217.167 191.766 212.91 198.759ZM166.756 170.626C164.369 174.535 163.197 179.064 163.386 183.639C163.576 188.215 165.118 192.632 167.82 196.331C170.521 200.03 174.259 202.846 178.562 204.422C182.864 205.998 187.538 206.264 191.991 205.186C196.445 204.107 200.479 201.733 203.582 198.364C206.686 194.995 208.72 190.782 209.428 186.257C210.135 181.733 209.484 177.1 207.557 172.946C205.63 168.791 202.513 165.3 198.601 162.916C193.353 159.725 187.053 158.745 181.083 160.19C175.113 161.636 169.96 165.388 166.756 170.626Z" fill="#3F3D56"/>
<path d="M311.889 187.632C320.619 187.632 327.697 180.56 327.697 171.836C327.697 163.111 320.619 156.039 311.889 156.039C303.159 156.039 296.082 163.111 296.082 171.836C296.082 180.56 303.159 187.632 311.889 187.632Z" fill="#A0616A"/>
<path d="M310.868 260.394C310.563 259.445 310.462 258.442 310.572 257.451C310.682 256.46 311 255.504 311.506 254.644C312.012 253.785 312.693 253.042 313.507 252.464C314.32 251.887 315.246 251.487 316.224 251.292C316.534 251.232 316.848 251.193 317.163 251.177L333.814 224.47L318.604 210.02C318.023 209.468 317.557 208.807 317.233 208.074C316.909 207.341 316.734 206.551 316.717 205.75C316.701 204.948 316.843 204.152 317.136 203.406C317.429 202.66 317.867 201.98 318.425 201.404C318.983 200.828 319.649 200.369 320.386 200.052C321.122 199.735 321.914 199.567 322.716 199.558C323.518 199.548 324.313 199.698 325.057 199.998C325.801 200.297 326.478 200.741 327.049 201.304L348.049 221.997L348.091 222.048C348.741 223.036 349.054 224.207 348.985 225.387C348.916 226.567 348.469 227.693 347.708 228.599L324.378 256.173C324.448 256.394 324.506 256.619 324.552 256.846C324.747 257.823 324.733 258.831 324.511 259.803C324.289 260.775 323.864 261.689 323.264 262.486C322.664 263.282 321.903 263.943 321.029 264.425C320.156 264.907 319.19 265.199 318.196 265.282C317.995 265.299 317.795 265.308 317.596 265.308C316.1 265.302 314.643 264.823 313.435 263.941C312.227 263.058 311.328 261.817 310.868 260.394Z" fill="#A0616A"/>
<path d="M285.854 391.687L277.964 391.687L274.21 361.273L285.856 361.273L285.854 391.687Z" fill="#A0616A"/>
<path d="M287.866 399.331L262.425 399.33V399.008C262.425 397.709 262.681 396.422 263.178 395.221C263.676 394.02 264.406 392.93 265.325 392.011C266.245 391.092 267.336 390.363 268.538 389.865C269.739 389.368 271.027 389.112 272.327 389.112L287.867 389.113L287.866 399.331Z" fill="#2F2E41"/>
<path d="M364.281 380.785L357.501 384.819L338.705 360.606L348.711 354.653L364.281 380.785Z" fill="#A0616A"/>
<path d="M369.922 386.324L348.062 399.331L347.897 399.054C347.232 397.938 346.793 396.701 346.606 395.415C346.419 394.129 346.487 392.819 346.807 391.559C347.127 390.299 347.691 389.115 348.469 388.073C349.247 387.032 350.222 386.154 351.34 385.489L364.692 377.544L369.922 386.324Z" fill="#2F2E41"/>
<path d="M273.215 378.293C267.929 316.095 264.785 258.314 284.107 234.743L284.257 234.561L316.775 247.559L316.829 247.676C316.938 247.914 327.753 271.687 325.23 287.677L333.251 324.548L359.404 368.31C359.615 368.662 359.748 369.055 359.795 369.463C359.842 369.87 359.802 370.283 359.677 370.674C359.552 371.065 359.346 371.425 359.071 371.73C358.796 372.035 358.46 372.278 358.084 372.444L346.719 377.441C346.078 377.72 345.357 377.759 344.69 377.55C344.022 377.341 343.452 376.9 343.084 376.305L314.634 329.946L298.565 294.388C298.477 294.195 298.329 294.036 298.142 293.936C297.956 293.835 297.741 293.799 297.532 293.833C297.323 293.866 297.13 293.968 296.984 294.121C296.839 294.275 296.747 294.473 296.725 294.683L287.817 378.357C287.743 379.068 287.407 379.726 286.875 380.204C286.343 380.682 285.653 380.946 284.938 380.945H276.102C275.377 380.941 274.68 380.667 274.146 380.176C273.612 379.686 273.28 379.015 273.215 378.293Z" fill="#2F2E41"/>
<path d="M284.217 235.236L284.062 235.162L284.038 234.992C282.823 226.496 284.261 217.056 288.311 206.934C290.308 201.98 294.018 197.908 298.768 195.459C303.517 193.01 308.988 192.348 314.185 193.593C317.179 194.33 319.986 195.68 322.43 197.558C324.874 199.437 326.901 201.801 328.383 204.503C329.846 207.178 330.737 210.126 331 213.162C331.263 216.199 330.892 219.256 329.91 222.142C324.804 237.063 318.18 251.025 318.114 251.164L317.975 251.455L284.217 235.236Z" fill="#6C63FF"/>
<path d="M248.738 214.074C249.521 213.456 250.426 213.011 251.393 212.767C252.36 212.523 253.368 212.486 254.351 212.658C255.333 212.831 256.268 213.209 257.094 213.767C257.921 214.326 258.619 215.053 259.145 215.9C259.31 216.169 259.456 216.45 259.582 216.739L290.445 222.973L298.663 203.676C298.977 202.938 299.434 202.27 300.007 201.711C300.581 201.151 301.26 200.71 302.005 200.414C302.75 200.118 303.547 199.972 304.348 199.985C305.15 199.998 305.941 200.17 306.676 200.491C307.411 200.811 308.075 201.274 308.63 201.852C309.185 202.431 309.62 203.113 309.91 203.86C310.199 204.608 310.338 205.405 310.317 206.206C310.297 207.007 310.117 207.796 309.79 208.527L297.748 235.431L297.715 235.489C297.017 236.443 296.029 237.146 294.899 237.495C293.769 237.844 292.556 237.819 291.441 237.424L257.425 225.242C257.243 225.385 257.052 225.518 256.856 225.641C256.008 226.166 255.058 226.506 254.069 226.638C253.081 226.771 252.075 226.694 251.118 226.411C250.162 226.128 249.276 225.646 248.518 224.998C247.761 224.349 247.149 223.547 246.723 222.646C246.636 222.464 246.558 222.28 246.488 222.093C245.97 220.69 245.909 219.159 246.313 217.719C246.717 216.279 247.565 215.003 248.738 214.074Z" fill="#A0616A"/>
<path d="M368.995 188.753C367.472 186.057 365.254 183.587 362.321 182.591C358.534 181.304 354.433 182.674 350.539 183.589C347.538 184.294 344.404 184.725 341.38 184.13C338.356 183.536 335.439 181.777 334.063 179.021C332.039 174.967 333.744 170.132 333.621 165.603C333.558 163.138 332.935 160.719 331.801 158.529C330.666 156.338 329.048 154.434 327.07 152.96C325.092 151.485 322.804 150.479 320.38 150.016C317.956 149.553 315.458 149.647 313.075 150.289C309.347 149.214 305.971 149.114 303.664 151.979C300.763 151.979 297.98 153.131 295.928 155.181C293.876 157.232 292.723 160.013 292.723 162.912H303.185C302.689 165.578 303.256 168.332 304.765 170.586C306.612 173.298 309.823 175.259 310.441 178.48C311.04 181.602 308.917 184.564 306.689 186.833C304.462 189.102 301.879 191.35 301.183 194.452C300.757 196.806 301.241 199.235 302.537 201.247C303.831 203.234 305.436 205.001 307.291 206.479C315.648 213.634 325.58 218.712 336.277 221.298C343.809 223.11 352.049 223.58 359.041 220.246C361.839 218.913 364.332 217.018 366.366 214.681C368.399 212.344 369.931 209.614 370.864 206.66C371.798 203.707 372.113 200.593 371.792 197.512C371.47 194.432 370.518 191.45 368.995 188.753Z" fill="#2F2E41"/>
<path d="M371.356 400H249.073C248.902 400 248.739 399.932 248.618 399.812C248.497 399.691 248.429 399.527 248.429 399.357C248.429 399.186 248.497 399.023 248.618 398.902C248.739 398.781 248.902 398.714 249.073 398.714H371.356C371.527 398.714 371.691 398.781 371.811 398.902C371.932 399.023 372 399.186 372 399.357C372 399.527 371.932 399.691 371.811 399.812C371.691 399.932 371.527 400 371.356 400Z" fill="#CCCCCC"/>
</g>
<defs>
<clipPath id="clip0_65_3">
<rect width="372" height="400" fill="white"/>
</clipPath>
</defs>
</svg>
