<?xml version="1.0" encoding="iso-8859-1"?>
<!-- Uploaded to: SVG Repo, www.svgrepo.com, Generator: SVG Repo Mixer Tools -->
<svg fill="#000000" height="800px" width="800px" version="1.1" id="Layer_1" xmlns="http://www.w3.org/2000/svg" xmlns:xlink="http://www.w3.org/1999/xlink" 
	 viewBox="0 0 512 512" xml:space="preserve">
<g>
	<g>
		<g>
			<path d="M149.803,487.3c0.215-0.309,0.426-0.625,0.639-0.94c0.203-0.302,0.408-0.6,0.609-0.906
				c17.416-26.356,28.149-69.781,28.149-118.521c0-73.777-24.591-135.381-59.733-144.021v-54.396
				c10.686-5.698,17.067-22.053,17.067-40.516s-6.38-34.817-17.067-40.516V59.733c0-4.713-3.82-8.533-8.533-8.533
				c-9.427,0-17.067-7.64-17.067-17.067c0-9.427,7.64-17.067,17.067-17.067c9.427,0,17.067,7.64,17.067,17.067
				c0,28.42,6.395,51.2,25.6,51.2c4.713,0,8.533-3.82,8.533-8.533s-3.82-8.533-8.533-8.533c-4.004,0-8.533-16.134-8.533-34.133
				C145.067,15.281,129.786,0,110.933,0C92.081,0,76.8,15.281,76.8,34.133c0,15.906,10.877,29.269,25.6,33.058v20.293
				C91.714,93.183,85.333,109.537,85.333,128s6.38,34.817,17.067,40.516v54.391c-10.763,2.63-20.572,10.218-29.02,21.811
				c-0.118,0.161-0.235,0.327-0.352,0.49c-0.306,0.426-0.611,0.852-0.913,1.288c-0.294,0.422-0.584,0.854-0.874,1.286
				c-0.124,0.186-0.25,0.368-0.374,0.556c-17.446,26.348-28.2,69.81-28.2,118.596C42.667,446.55,71.302,512,110.933,512
				c0.625,0,1.246-0.017,1.865-0.049c0.402-0.021,0.801-0.059,1.201-0.093c0.21-0.018,0.422-0.028,0.632-0.05
				c0.576-0.06,1.149-0.136,1.719-0.223c0.028-0.004,0.057-0.007,0.085-0.011c11.976-1.859,22.852-9.778,32.098-22.488
				c0.058-0.08,0.116-0.162,0.174-0.242C149.075,488.335,149.441,487.823,149.803,487.3z M113.046,494.804
				c-0.328,0.039-0.655,0.07-0.982,0.092c-0.376,0.023-0.753,0.038-1.13,0.038c-0.403,0-0.806-0.014-1.209-0.041
				c-0.135-0.009-0.27-0.027-0.405-0.039c-0.267-0.023-0.534-0.046-0.801-0.08c-0.161-0.021-0.323-0.052-0.484-0.077
				c-0.24-0.038-0.48-0.073-0.72-0.12c-0.171-0.033-0.341-0.076-0.511-0.114c-0.229-0.051-0.459-0.101-0.688-0.16
				c-0.177-0.046-0.353-0.101-0.529-0.151c-0.222-0.064-0.445-0.127-0.667-0.199c-0.18-0.058-0.359-0.125-0.539-0.188
				c-0.217-0.077-0.435-0.153-0.651-0.237c-0.182-0.071-0.363-0.148-0.545-0.224c-0.214-0.09-0.428-0.179-0.642-0.276
				c-0.182-0.083-0.364-0.171-0.545-0.259c-0.212-0.102-0.423-0.205-0.634-0.314c-0.183-0.095-0.365-0.194-0.547-0.294
				c-0.209-0.115-0.419-0.231-0.627-0.352c-0.182-0.106-0.364-0.217-0.546-0.328c-0.207-0.127-0.415-0.256-0.622-0.39
				c-0.182-0.118-0.363-0.239-0.544-0.362c-0.206-0.139-0.411-0.281-0.616-0.427c-0.181-0.129-0.362-0.26-0.542-0.394
				c-0.204-0.152-0.408-0.307-0.612-0.465c-0.179-0.139-0.358-0.281-0.537-0.425c-0.204-0.165-0.407-0.334-0.61-0.505
				c-0.177-0.149-0.354-0.299-0.53-0.454c-0.203-0.177-0.405-0.359-0.606-0.542c-0.176-0.16-0.352-0.321-0.527-0.485
				c-0.201-0.189-0.402-0.384-0.602-0.58c-0.173-0.169-0.347-0.338-0.519-0.512c-0.202-0.203-0.402-0.412-0.603-0.622
				c-0.17-0.178-0.34-0.354-0.51-0.537c-0.202-0.217-0.402-0.441-0.603-0.664c-0.167-0.185-0.333-0.369-0.499-0.559
				c-0.202-0.232-0.403-0.47-0.604-0.708c-0.163-0.193-0.325-0.382-0.487-0.579c-0.203-0.247-0.404-0.501-0.606-0.754
				c-0.158-0.199-0.317-0.395-0.475-0.598c-0.204-0.263-0.407-0.535-0.61-0.805c-0.153-0.203-0.306-0.402-0.458-0.608
				c-0.216-0.294-0.431-0.597-0.645-0.899c-0.136-0.191-0.273-0.377-0.408-0.571c-0.247-0.355-0.492-0.719-0.738-1.084
				c-0.102-0.151-0.204-0.297-0.305-0.45c-0.345-0.521-0.688-1.051-1.028-1.591c-0.067-0.107-0.133-0.218-0.2-0.325
				c-0.273-0.438-0.546-0.878-0.816-1.329c-0.12-0.2-0.238-0.406-0.357-0.608c-0.215-0.365-0.43-0.728-0.643-1.1
				c-0.137-0.239-0.272-0.486-0.408-0.728c-0.193-0.344-0.386-0.687-0.577-1.037c-0.142-0.261-0.282-0.528-0.424-0.792
				c-0.183-0.342-0.366-0.683-0.547-1.031c-0.143-0.274-0.283-0.554-0.425-0.831c-0.177-0.348-0.355-0.694-0.53-1.047
				c-0.143-0.287-0.284-0.58-0.425-0.87c-0.171-0.351-0.342-0.701-0.511-1.057c-0.143-0.302-0.285-0.608-0.427-0.913
				c-0.165-0.355-0.33-0.71-0.494-1.07c-0.142-0.312-0.282-0.629-0.423-0.945c-0.161-0.362-0.321-0.724-0.481-1.09
				c-0.139-0.32-0.277-0.644-0.415-0.968c-0.159-0.373-0.317-0.748-0.474-1.126c-0.135-0.326-0.269-0.655-0.403-0.984
				c-0.156-0.383-0.31-0.767-0.464-1.154c-0.133-0.336-0.265-0.673-0.397-1.012c-0.151-0.388-0.301-0.779-0.45-1.172
				c-0.131-0.345-0.261-0.692-0.391-1.041c-0.148-0.398-0.294-0.798-0.44-1.2c-0.127-0.351-0.254-0.703-0.38-1.057
				c-0.144-0.407-0.288-0.817-0.43-1.228c-0.124-0.358-0.248-0.717-0.371-1.079c-0.141-0.415-0.28-0.833-0.418-1.252
				c-0.121-0.365-0.242-0.731-0.361-1.1c-0.137-0.424-0.273-0.852-0.408-1.28c-0.117-0.371-0.234-0.742-0.35-1.116
				c-0.134-0.434-0.266-0.872-0.398-1.31c-0.113-0.376-0.227-0.752-0.339-1.132c-0.131-0.444-0.259-0.893-0.388-1.341
				c-0.109-0.38-0.219-0.758-0.326-1.141c-0.13-0.463-0.257-0.931-0.385-1.398c-0.102-0.374-0.205-0.746-0.305-1.122
				c-0.128-0.48-0.253-0.965-0.379-1.45c-0.097-0.374-0.195-0.747-0.291-1.124c-0.127-0.502-0.251-1.01-0.376-1.517
				c-0.089-0.362-0.18-0.721-0.267-1.085c-0.135-0.56-0.265-1.126-0.397-1.691c-0.074-0.319-0.15-0.634-0.223-0.955
				c-0.162-0.71-0.319-1.426-0.476-2.144c-0.039-0.181-0.081-0.36-0.12-0.541c-0.195-0.903-0.385-1.812-0.571-2.728
				c-0.049-0.242-0.096-0.487-0.144-0.73c-0.135-0.674-0.269-1.348-0.399-2.029c-0.068-0.357-0.133-0.717-0.2-1.076
				c-0.107-0.572-0.214-1.143-0.318-1.72c-0.071-0.397-0.139-0.799-0.209-1.199c-0.095-0.544-0.191-1.087-0.282-1.635
				c-0.069-0.414-0.136-0.832-0.203-1.248c-0.088-0.54-0.176-1.08-0.261-1.623c-0.067-0.426-0.13-0.856-0.195-1.285
				c-0.081-0.537-0.163-1.074-0.241-1.615c-0.064-0.442-0.125-0.887-0.187-1.331c-0.074-0.532-0.149-1.063-0.22-1.598
				c-0.061-0.454-0.119-0.911-0.178-1.367c-0.068-0.533-0.137-1.065-0.202-1.601c-0.056-0.46-0.11-0.922-0.165-1.384
				c-0.063-0.535-0.125-1.071-0.185-1.61c-0.052-0.469-0.103-0.939-0.153-1.41c-0.057-0.538-0.114-1.078-0.168-1.619
				c-0.048-0.473-0.093-0.947-0.139-1.422c-0.052-0.543-0.103-1.088-0.152-1.633c-0.043-0.478-0.084-0.957-0.125-1.437
				c-0.047-0.549-0.092-1.1-0.135-1.652c-0.038-0.48-0.075-0.96-0.11-1.442c-0.041-0.554-0.08-1.11-0.118-1.667
				c-0.033-0.486-0.066-0.973-0.096-1.462c-0.035-0.559-0.068-1.12-0.101-1.681c-0.028-0.487-0.055-0.973-0.081-1.462
				c-0.03-0.567-0.057-1.136-0.084-1.705c-0.023-0.491-0.046-0.981-0.066-1.474c-0.024-0.567-0.044-1.137-0.065-1.706
				c-0.018-0.497-0.036-0.994-0.052-1.493c-0.005-0.167-0.009-0.336-0.014-0.503c45.075,4.133,81.07,40.182,84.764,85.797
				c-9.193,20.278-20.578,31.774-31.51,33.137C113.097,494.799,113.071,494.801,113.046,494.804z M59.848,358.737
				c0.542-20.105,3.056-38.889,6.994-55.346c14.782,39.652,51.49,68.365,95.176,71.738c-0.542,20.107-3.056,38.891-6.995,55.349
				C140.241,390.824,103.534,362.11,59.848,358.737z M112.142,238.974c0.135,0.009,0.27,0.027,0.405,0.039
				c0.267,0.023,0.534,0.046,0.801,0.08c0.161,0.021,0.323,0.052,0.484,0.077c0.24,0.038,0.48,0.073,0.72,0.12
				c0.171,0.033,0.341,0.076,0.511,0.114c0.229,0.051,0.459,0.101,0.688,0.16c0.177,0.046,0.353,0.101,0.529,0.151
				c0.222,0.064,0.445,0.127,0.667,0.199c0.18,0.059,0.359,0.125,0.539,0.188c0.217,0.077,0.434,0.153,0.651,0.237
				c0.182,0.071,0.363,0.148,0.544,0.224c0.214,0.09,0.429,0.179,0.643,0.276c0.182,0.083,0.364,0.171,0.546,0.259
				c0.211,0.102,0.423,0.205,0.633,0.314c0.183,0.095,0.365,0.195,0.548,0.295c0.209,0.115,0.418,0.23,0.626,0.352
				c0.182,0.106,0.365,0.217,0.547,0.328c0.208,0.127,0.415,0.256,0.622,0.391c0.181,0.117,0.362,0.238,0.543,0.36
				c0.206,0.14,0.412,0.282,0.618,0.428c0.181,0.129,0.361,0.26,0.542,0.394c0.204,0.152,0.408,0.307,0.612,0.465
				c0.179,0.139,0.358,0.281,0.537,0.425c0.204,0.165,0.407,0.334,0.61,0.505c0.177,0.149,0.353,0.299,0.53,0.453
				c0.203,0.178,0.406,0.36,0.608,0.544c0.175,0.159,0.35,0.319,0.524,0.483c0.202,0.19,0.404,0.386,0.605,0.583
				c0.173,0.169,0.345,0.337,0.517,0.51c0.202,0.204,0.403,0.413,0.604,0.623c0.169,0.177,0.339,0.353,0.507,0.534
				c0.202,0.217,0.403,0.441,0.603,0.665c0.167,0.186,0.334,0.37,0.5,0.561c0.202,0.231,0.403,0.47,0.603,0.708
				c0.162,0.192,0.324,0.381,0.486,0.577c0.205,0.249,0.409,0.507,0.613,0.763c0.156,0.196,0.313,0.389,0.468,0.589
				c0.208,0.267,0.414,0.543,0.62,0.817c0.149,0.199,0.3,0.393,0.448,0.596c0.218,0.297,0.435,0.603,0.652,0.908
				c0.134,0.188,0.269,0.372,0.403,0.564c0.247,0.355,0.492,0.72,0.738,1.084c0.102,0.151,0.204,0.297,0.305,0.45
				c0.345,0.521,0.688,1.052,1.029,1.593c0.059,0.094,0.117,0.191,0.176,0.285c0.281,0.449,0.56,0.902,0.838,1.364
				c0.124,0.207,0.246,0.42,0.369,0.629c0.211,0.358,0.423,0.716,0.632,1.082c0.135,0.236,0.268,0.479,0.402,0.719
				c0.195,0.348,0.391,0.694,0.584,1.049c0.14,0.257,0.279,0.521,0.418,0.782c0.184,0.345,0.369,0.688,0.551,1.038
				c0.143,0.274,0.283,0.554,0.425,0.831c0.177,0.348,0.355,0.695,0.53,1.048c0.142,0.285,0.282,0.575,0.422,0.864
				c0.172,0.354,0.345,0.708,0.516,1.067c0.142,0.298,0.282,0.601,0.422,0.903c0.167,0.358,0.333,0.717,0.498,1.08
				c0.14,0.308,0.279,0.621,0.417,0.933c0.163,0.367,0.326,0.734,0.487,1.106c0.138,0.317,0.274,0.638,0.41,0.958
				c0.159,0.375,0.318,0.75,0.476,1.13c0.136,0.327,0.27,0.656,0.404,0.986c0.155,0.381,0.309,0.763,0.462,1.148
				c0.134,0.337,0.266,0.676,0.399,1.016c0.151,0.39,0.302,0.781,0.452,1.176c0.13,0.342,0.259,0.687,0.388,1.033
				c0.149,0.4,0.296,0.802,0.443,1.207c0.127,0.349,0.253,0.699,0.378,1.052c0.145,0.409,0.289,0.822,0.433,1.235
				c0.123,0.355,0.246,0.71,0.367,1.069c0.142,0.42,0.283,0.843,0.424,1.268c0.119,0.36,0.238,0.72,0.356,1.083
				c0.139,0.43,0.277,0.864,0.414,1.299c0.115,0.365,0.231,0.73,0.344,1.098c0.136,0.441,0.27,0.886,0.404,1.331
				c0.111,0.37,0.223,0.739,0.333,1.111c0.132,0.449,0.262,0.904,0.392,1.357c0.108,0.376,0.216,0.751,0.323,1.13
				c0.13,0.463,0.257,0.932,0.385,1.399c0.102,0.374,0.205,0.746,0.305,1.122c0.13,0.485,0.256,0.976,0.383,1.466
				c0.095,0.367,0.192,0.732,0.285,1.101c0.131,0.518,0.259,1.043,0.388,1.566c0.085,0.346,0.172,0.69,0.255,1.038
				c0.137,0.569,0.27,1.144,0.403,1.719c0.072,0.311,0.146,0.619,0.218,0.931c0.162,0.71,0.319,1.426,0.476,2.144
				c0.039,0.181,0.081,0.36,0.12,0.541c0.195,0.903,0.385,1.813,0.571,2.729c0.046,0.226,0.089,0.456,0.135,0.683
				c0.138,0.691,0.276,1.382,0.41,2.08c0.064,0.335,0.125,0.675,0.188,1.012c0.111,0.593,0.222,1.186,0.33,1.784
				c0.068,0.381,0.134,0.767,0.201,1.15c0.098,0.56,0.196,1.12,0.291,1.684c0.068,0.406,0.133,0.816,0.2,1.224
				c0.089,0.546,0.178,1.091,0.264,1.64c0.067,0.426,0.13,0.856,0.195,1.285c0.081,0.537,0.163,1.075,0.241,1.615
				c0.063,0.437,0.124,0.878,0.185,1.317c0.075,0.538,0.151,1.077,0.223,1.618c0.06,0.446,0.117,0.894,0.174,1.342
				c0.07,0.541,0.139,1.083,0.206,1.627c0.055,0.452,0.109,0.906,0.162,1.36c0.064,0.543,0.127,1.087,0.188,1.633
				c0.052,0.464,0.102,0.931,0.151,1.397c0.058,0.541,0.115,1.083,0.169,1.628c0.047,0.469,0.093,0.939,0.138,1.409
				c0.053,0.55,0.104,1.101,0.154,1.653c0.042,0.47,0.083,0.942,0.123,1.414c0.047,0.557,0.093,1.115,0.137,1.674
				c0.038,0.475,0.074,0.952,0.109,1.429c0.041,0.557,0.081,1.116,0.119,1.675c0.033,0.482,0.065,0.965,0.096,1.449
				c0.036,0.565,0.069,1.132,0.102,1.699c0.028,0.483,0.055,0.965,0.08,1.45c0.03,0.57,0.057,1.141,0.084,1.713
				c0.023,0.486,0.045,0.973,0.066,1.461c0.024,0.576,0.045,1.154,0.066,1.732c0.018,0.488,0.036,0.977,0.051,1.466
				c0.005,0.17,0.009,0.341,0.014,0.512c-45.075-4.133-81.07-40.181-84.764-85.789c9.192-20.284,20.577-31.782,31.509-33.145
				c0.026-0.003,0.053-0.005,0.079-0.008c0.327-0.039,0.654-0.07,0.98-0.091c0.376-0.023,0.753-0.038,1.13-0.038
				C111.337,238.933,111.74,238.948,112.142,238.974z M106.499,107.681c1.884-3.768,3.673-5.281,4.434-5.281
				c0.761,0,2.549,1.513,4.434,5.281c2.555,5.109,4.099,12.408,4.099,20.319s-1.544,15.21-4.099,20.319
				c-1.884,3.768-3.673,5.281-4.434,5.281c-0.761,0-2.549-1.513-4.434-5.281C103.944,143.21,102.4,135.91,102.4,128
				S103.944,112.79,106.499,107.681z"/>
			<path d="M404.765,511.808c0.576-0.06,1.148-0.136,1.719-0.223c0.028-0.004,0.057-0.007,0.085-0.011
				c11.976-1.859,22.853-9.779,32.099-22.489c0.057-0.079,0.114-0.159,0.171-0.238c0.367-0.508,0.733-1.021,1.095-1.545
				c0.216-0.311,0.43-0.63,0.644-0.946c0.202-0.3,0.405-0.597,0.606-0.901c17.416-26.356,28.149-69.782,28.149-118.521
				c0-73.777-24.591-135.381-59.733-144.021v-54.396c10.686-5.698,17.067-22.053,17.067-40.516s-6.38-34.817-17.067-40.516V59.733
				c0-4.713-3.821-8.533-8.533-8.533C391.64,51.2,384,43.56,384,34.133c0-9.427,7.64-17.067,17.067-17.067
				c9.427,0,17.067,7.64,17.067,17.067c0,28.42,6.395,51.2,25.6,51.2c4.713,0,8.533-3.82,8.533-8.533s-3.82-8.533-8.533-8.533
				c-4.004,0-8.533-16.134-8.533-34.133C435.2,15.281,419.919,0,401.067,0s-34.133,15.281-34.133,34.133
				c0,15.906,10.877,29.269,25.6,33.058v20.293c-10.686,5.698-17.067,22.053-17.067,40.516s6.38,34.817,17.067,40.516v54.391
				c-10.762,2.63-20.57,10.217-29.019,21.809c-0.12,0.164-0.238,0.331-0.357,0.496c-0.305,0.424-0.609,0.849-0.91,1.283
				c-0.295,0.424-0.586,0.857-0.877,1.29c-0.123,0.184-0.247,0.365-0.37,0.55c-17.446,26.348-28.201,69.81-28.201,118.598
				C332.8,446.55,361.435,512,401.067,512c0.625,0,1.246-0.017,1.865-0.049c0.401-0.021,0.8-0.059,1.199-0.093
				C404.342,511.84,404.555,511.83,404.765,511.808z M403.179,494.804c-0.328,0.039-0.655,0.07-0.982,0.092
				c-0.376,0.023-0.753,0.038-1.13,0.038c-0.403,0-0.806-0.014-1.209-0.041c-0.135-0.009-0.27-0.027-0.405-0.039
				c-0.267-0.023-0.534-0.046-0.801-0.08c-0.161-0.021-0.323-0.052-0.484-0.077c-0.24-0.038-0.48-0.073-0.72-0.12
				c-0.171-0.033-0.341-0.076-0.511-0.114c-0.229-0.051-0.459-0.101-0.688-0.16c-0.177-0.046-0.353-0.101-0.529-0.151
				c-0.222-0.064-0.445-0.127-0.667-0.199c-0.18-0.059-0.359-0.125-0.539-0.188c-0.217-0.077-0.434-0.153-0.651-0.237
				c-0.182-0.071-0.363-0.148-0.544-0.224c-0.214-0.09-0.429-0.179-0.643-0.276c-0.182-0.083-0.364-0.171-0.546-0.259
				c-0.211-0.102-0.423-0.205-0.633-0.314c-0.183-0.095-0.365-0.195-0.548-0.295c-0.209-0.115-0.418-0.23-0.626-0.352
				c-0.182-0.106-0.365-0.217-0.547-0.328c-0.208-0.127-0.415-0.256-0.622-0.391c-0.181-0.117-0.362-0.238-0.543-0.36
				c-0.206-0.14-0.412-0.282-0.618-0.428c-0.181-0.129-0.361-0.26-0.542-0.394c-0.204-0.152-0.408-0.307-0.612-0.465
				c-0.179-0.139-0.358-0.281-0.537-0.425c-0.204-0.165-0.407-0.334-0.61-0.505c-0.177-0.149-0.353-0.299-0.53-0.453
				c-0.203-0.178-0.406-0.36-0.608-0.544c-0.175-0.159-0.35-0.319-0.524-0.483c-0.202-0.19-0.404-0.386-0.605-0.583
				c-0.173-0.169-0.345-0.337-0.517-0.51c-0.202-0.204-0.403-0.413-0.604-0.623c-0.169-0.177-0.339-0.353-0.507-0.534
				c-0.202-0.218-0.404-0.442-0.605-0.667c-0.166-0.185-0.332-0.368-0.498-0.558c-0.203-0.233-0.405-0.473-0.607-0.712
				c-0.161-0.191-0.323-0.379-0.483-0.574c-0.205-0.249-0.409-0.507-0.613-0.763c-0.156-0.196-0.313-0.389-0.468-0.589
				c-0.208-0.267-0.414-0.543-0.62-0.817c-0.149-0.199-0.3-0.393-0.448-0.596c-0.218-0.297-0.435-0.603-0.652-0.908
				c-0.134-0.188-0.269-0.372-0.403-0.564c-0.253-0.362-0.503-0.735-0.753-1.107c-0.096-0.143-0.193-0.281-0.289-0.425
				c-0.346-0.522-0.689-1.054-1.03-1.595c-0.059-0.094-0.117-0.191-0.176-0.285c-0.281-0.449-0.56-0.902-0.838-1.364
				c-0.122-0.203-0.242-0.413-0.363-0.618c-0.214-0.363-0.428-0.724-0.64-1.095c-0.133-0.232-0.263-0.471-0.395-0.706
				c-0.197-0.351-0.394-0.701-0.589-1.059c-0.14-0.257-0.279-0.521-0.418-0.782c-0.184-0.345-0.369-0.688-0.551-1.038
				c-0.143-0.274-0.283-0.554-0.425-0.831c-0.177-0.348-0.355-0.695-0.53-1.048c-0.142-0.285-0.282-0.575-0.422-0.864
				c-0.172-0.354-0.345-0.708-0.516-1.068c-0.141-0.297-0.281-0.599-0.421-0.9c-0.167-0.36-0.335-0.72-0.501-1.085
				c-0.14-0.308-0.278-0.62-0.417-0.932c-0.163-0.366-0.325-0.733-0.486-1.104c-0.138-0.318-0.275-0.64-0.412-0.961
				c-0.159-0.374-0.318-0.749-0.475-1.128c-0.136-0.327-0.27-0.656-0.404-0.986c-0.155-0.381-0.309-0.763-0.462-1.148
				c-0.134-0.337-0.266-0.676-0.399-1.016c-0.151-0.389-0.302-0.781-0.451-1.175c-0.13-0.343-0.26-0.688-0.389-1.035
				c-0.148-0.398-0.295-0.799-0.441-1.202c-0.127-0.351-0.254-0.703-0.38-1.057c-0.145-0.408-0.288-0.818-0.431-1.231
				c-0.123-0.356-0.246-0.712-0.368-1.071c-0.142-0.42-0.283-0.843-0.424-1.267c-0.119-0.36-0.238-0.72-0.356-1.083
				c-0.139-0.43-0.277-0.864-0.414-1.299c-0.115-0.365-0.231-0.73-0.344-1.098c-0.136-0.441-0.27-0.886-0.404-1.331
				c-0.111-0.37-0.223-0.739-0.333-1.111c-0.133-0.452-0.264-0.908-0.394-1.364c-0.107-0.372-0.214-0.743-0.319-1.118
				c-0.131-0.469-0.26-0.943-0.389-1.416c-0.101-0.37-0.203-0.737-0.302-1.11c-0.129-0.484-0.256-0.974-0.382-1.463
				c-0.096-0.369-0.192-0.735-0.286-1.106c-0.131-0.517-0.258-1.039-0.387-1.56c-0.085-0.348-0.172-0.692-0.257-1.042
				c-0.137-0.569-0.27-1.144-0.403-1.719c-0.072-0.311-0.146-0.619-0.218-0.931c-0.162-0.71-0.319-1.426-0.476-2.144
				c-0.039-0.181-0.081-0.36-0.12-0.541c-0.195-0.903-0.385-1.812-0.571-2.728c-0.047-0.232-0.092-0.467-0.138-0.7
				c-0.137-0.686-0.274-1.372-0.406-2.065c-0.064-0.335-0.125-0.675-0.188-1.012c-0.111-0.593-0.222-1.186-0.33-1.784
				c-0.07-0.389-0.136-0.782-0.204-1.173c-0.096-0.551-0.193-1.101-0.286-1.655c-0.069-0.414-0.136-0.832-0.203-1.248
				c-0.088-0.54-0.176-1.08-0.261-1.623c-0.067-0.426-0.13-0.856-0.195-1.285c-0.081-0.537-0.163-1.075-0.241-1.615
				c-0.063-0.437-0.124-0.878-0.185-1.317c-0.075-0.538-0.151-1.077-0.223-1.618c-0.06-0.446-0.117-0.894-0.174-1.342
				c-0.07-0.541-0.139-1.082-0.206-1.625c-0.056-0.456-0.109-0.914-0.163-1.371c-0.063-0.537-0.126-1.075-0.186-1.615
				c-0.052-0.469-0.103-0.939-0.153-1.41c-0.057-0.538-0.114-1.078-0.168-1.619c-0.048-0.473-0.093-0.947-0.139-1.422
				c-0.052-0.543-0.103-1.088-0.152-1.633c-0.043-0.478-0.084-0.957-0.125-1.437c-0.047-0.549-0.092-1.1-0.135-1.652
				c-0.038-0.48-0.075-0.96-0.11-1.442c-0.041-0.554-0.08-1.11-0.118-1.667c-0.033-0.486-0.066-0.973-0.096-1.462
				c-0.035-0.559-0.068-1.12-0.101-1.681c-0.028-0.487-0.055-0.973-0.081-1.462c-0.03-0.567-0.057-1.136-0.084-1.705
				c-0.023-0.491-0.046-0.981-0.066-1.474c-0.024-0.567-0.044-1.137-0.065-1.706c-0.018-0.497-0.036-0.994-0.052-1.493
				c-0.005-0.167-0.009-0.336-0.014-0.503c45.075,4.133,81.07,40.182,84.764,85.797c-9.193,20.278-20.578,31.774-31.51,33.137
				C403.23,494.799,403.204,494.801,403.179,494.804z M356.976,303.391c14.782,39.652,51.49,68.365,95.176,71.738
				c-0.542,20.107-3.056,38.891-6.995,55.349c-14.783-39.654-51.49-68.368-95.176-71.741
				C350.524,338.632,353.037,319.848,356.976,303.391z M402.275,238.974c0.135,0.009,0.27,0.027,0.405,0.039
				c0.267,0.023,0.534,0.046,0.801,0.08c0.161,0.021,0.323,0.052,0.484,0.077c0.24,0.038,0.48,0.073,0.72,0.12
				c0.171,0.033,0.341,0.076,0.511,0.114c0.229,0.051,0.459,0.101,0.688,0.16c0.177,0.046,0.353,0.101,0.529,0.151
				c0.222,0.064,0.445,0.127,0.667,0.199c0.18,0.058,0.359,0.125,0.539,0.188c0.217,0.077,0.435,0.153,0.651,0.237
				c0.182,0.071,0.363,0.148,0.545,0.224c0.214,0.09,0.428,0.179,0.642,0.276c0.182,0.083,0.364,0.171,0.545,0.259
				c0.212,0.102,0.423,0.205,0.634,0.314c0.183,0.095,0.365,0.194,0.547,0.294c0.209,0.115,0.419,0.231,0.627,0.352
				c0.182,0.106,0.364,0.217,0.546,0.328c0.207,0.127,0.415,0.256,0.622,0.39c0.182,0.118,0.363,0.239,0.544,0.362
				c0.206,0.139,0.411,0.281,0.616,0.427c0.181,0.129,0.362,0.26,0.542,0.394c0.204,0.152,0.408,0.307,0.612,0.465
				c0.179,0.139,0.358,0.281,0.537,0.425c0.204,0.165,0.407,0.334,0.61,0.505c0.177,0.149,0.354,0.299,0.53,0.454
				c0.203,0.177,0.405,0.359,0.606,0.542c0.176,0.16,0.352,0.321,0.527,0.485c0.201,0.189,0.402,0.384,0.602,0.58
				c0.173,0.169,0.347,0.338,0.519,0.512c0.202,0.203,0.402,0.412,0.603,0.622c0.17,0.178,0.34,0.354,0.51,0.537
				c0.202,0.217,0.402,0.441,0.603,0.664c0.167,0.185,0.333,0.369,0.499,0.559c0.202,0.232,0.403,0.47,0.604,0.708
				c0.163,0.193,0.325,0.382,0.487,0.579c0.203,0.247,0.404,0.501,0.606,0.754c0.158,0.199,0.317,0.395,0.475,0.598
				c0.204,0.263,0.407,0.535,0.61,0.805c0.153,0.203,0.306,0.402,0.458,0.608c0.216,0.294,0.431,0.597,0.645,0.899
				c0.136,0.191,0.273,0.377,0.408,0.571c0.247,0.355,0.492,0.719,0.738,1.084c0.102,0.151,0.204,0.297,0.305,0.45
				c0.345,0.521,0.688,1.051,1.028,1.591c0.067,0.107,0.133,0.218,0.2,0.325c0.273,0.438,0.546,0.878,0.816,1.329
				c0.12,0.2,0.238,0.406,0.357,0.608c0.215,0.365,0.43,0.728,0.643,1.1c0.137,0.239,0.272,0.486,0.408,0.728
				c0.193,0.344,0.386,0.687,0.577,1.037c0.142,0.261,0.282,0.528,0.424,0.792c0.183,0.342,0.366,0.683,0.547,1.031
				c0.143,0.274,0.283,0.554,0.425,0.831c0.177,0.348,0.355,0.694,0.53,1.047c0.143,0.287,0.284,0.58,0.425,0.87
				c0.171,0.351,0.342,0.701,0.511,1.057c0.143,0.301,0.284,0.606,0.426,0.91c0.166,0.357,0.332,0.714,0.497,1.076
				c0.14,0.308,0.279,0.621,0.417,0.933c0.163,0.367,0.326,0.734,0.487,1.106c0.138,0.317,0.274,0.638,0.41,0.958
				c0.159,0.375,0.318,0.75,0.476,1.13c0.135,0.326,0.269,0.655,0.403,0.984c0.156,0.383,0.31,0.767,0.464,1.154
				c0.133,0.336,0.265,0.673,0.397,1.012c0.151,0.389,0.301,0.779,0.451,1.172c0.131,0.344,0.26,0.69,0.39,1.038
				c0.148,0.399,0.296,0.801,0.442,1.205c0.127,0.349,0.253,0.699,0.378,1.052c0.145,0.408,0.289,0.82,0.432,1.233
				c0.124,0.358,0.247,0.716,0.37,1.077c0.141,0.415,0.28,0.833,0.419,1.253c0.121,0.366,0.242,0.731,0.361,1.1
				c0.137,0.424,0.273,0.852,0.408,1.28c0.117,0.371,0.234,0.742,0.35,1.116c0.134,0.434,0.266,0.872,0.398,1.31
				c0.113,0.376,0.227,0.752,0.339,1.132c0.131,0.444,0.259,0.893,0.388,1.341c0.109,0.38,0.219,0.758,0.326,1.141
				c0.13,0.463,0.257,0.931,0.385,1.398c0.102,0.374,0.205,0.746,0.305,1.122c0.128,0.481,0.254,0.968,0.38,1.453
				c0.097,0.373,0.195,0.744,0.29,1.119c0.128,0.504,0.252,1.014,0.377,1.523c0.089,0.36,0.179,0.718,0.266,1.081
				c0.135,0.56,0.265,1.126,0.397,1.691c0.074,0.319,0.15,0.634,0.223,0.955c0.162,0.71,0.319,1.426,0.476,2.144
				c0.039,0.181,0.081,0.36,0.12,0.541c0.195,0.903,0.385,1.813,0.571,2.729c0.048,0.236,0.093,0.476,0.141,0.713
				c0.136,0.679,0.271,1.359,0.403,2.045c0.068,0.356,0.133,0.717,0.2,1.076c0.107,0.572,0.214,1.143,0.318,1.72
				c0.071,0.396,0.139,0.797,0.208,1.195c0.095,0.545,0.191,1.09,0.283,1.639c0.069,0.413,0.135,0.83,0.203,1.245
				c0.088,0.541,0.177,1.081,0.262,1.626c0.067,0.426,0.13,0.856,0.195,1.285c0.081,0.537,0.163,1.074,0.241,1.615
				c0.064,0.442,0.125,0.887,0.187,1.331c0.074,0.532,0.149,1.063,0.22,1.598c0.061,0.454,0.119,0.911,0.178,1.367
				c0.068,0.533,0.137,1.065,0.202,1.601c0.056,0.46,0.11,0.922,0.165,1.384c0.063,0.536,0.125,1.071,0.185,1.61
				c0.052,0.468,0.102,0.939,0.153,1.409c0.057,0.539,0.114,1.079,0.169,1.621c0.047,0.472,0.093,0.946,0.139,1.421
				c0.052,0.543,0.103,1.088,0.152,1.634c0.043,0.478,0.084,0.957,0.125,1.436c0.047,0.55,0.092,1.101,0.135,1.654
				c0.038,0.479,0.075,0.959,0.11,1.44c0.041,0.555,0.08,1.111,0.118,1.669c0.033,0.486,0.066,0.972,0.096,1.46
				c0.035,0.559,0.068,1.12,0.101,1.682c0.028,0.486,0.055,0.973,0.081,1.461c0.03,0.567,0.057,1.136,0.084,1.706
				c0.023,0.49,0.046,0.981,0.066,1.473c0.024,0.568,0.044,1.137,0.065,1.707c0.018,0.497,0.036,0.994,0.052,1.492
				c0.005,0.167,0.009,0.336,0.014,0.504c-45.075-4.132-81.07-40.181-84.764-85.789c9.192-20.284,20.577-31.782,31.509-33.145
				c0.026-0.003,0.052-0.005,0.078-0.008c0.327-0.039,0.654-0.07,0.981-0.092c0.376-0.023,0.753-0.038,1.13-0.038
				C401.47,238.933,401.873,238.948,402.275,238.974z M396.633,107.681c1.884-3.768,3.673-5.281,4.434-5.281
				s2.549,1.513,4.434,5.281c2.555,5.109,4.099,12.408,4.099,20.319s-1.544,15.21-4.099,20.319
				c-1.884,3.768-3.673,5.281-4.434,5.281s-2.549-1.513-4.434-5.281c-2.555-5.109-4.099-12.408-4.099-20.319
				S394.078,112.79,396.633,107.681z"/>
		</g>
	</g>
</g>
</svg>