<svg width="53" height="61" viewBox="0 0 53 61" fill="none" xmlns="http://www.w3.org/2000/svg">
<path d="M21 38.5C30.665 38.5 38.5 30.665 38.5 21C38.5 11.335 30.665 3.5 21 3.5C11.335 3.5 3.5 11.335 3.5 21C3.5 30.665 11.335 38.5 21 38.5Z" stroke="#3498DB" stroke-width="7" stroke-linecap="round" stroke-linejoin="round"/>
<path d="M26.5 28.5L45.1071 52.5321" stroke="#3498DB" stroke-width="8" stroke-linecap="round" stroke-linejoin="round"/>
<path d="M21 38.5C30.665 38.5 38.5 30.665 38.5 21C38.5 11.335 30.665 3.5 21 3.5C11.335 3.5 3.5 11.335 3.5 21C3.5 30.665 11.335 38.5 21 38.5Z" stroke="#3498DB" stroke-width="7" stroke-linecap="round" stroke-linejoin="round"/>
<path d="M28.4876 15.0492C27.0452 13.0471 24.8666 11.6998 22.431 11.304C19.9953 10.9081 17.5022 11.496 15.5 12.9384" stroke="#FF7828" stroke-width="4" stroke-linecap="round"/>
<path d="M46.7059 44.7523L42.4948 39.2948L32.9161 46.7903L37.1272 52.2477L41.9166 48.5L46.7059 44.7523ZM41.587 57.9849C43.9297 60.9855 47.9609 61.7244 50.5909 59.6352C53.221 57.5461 53.4539 53.4199 51.1112 50.4193L46.3491 54.2021L41.587 57.9849ZM43.5483 50.6147L38.759 54.3625C38.768 54.3742 38.7771 54.3859 38.7862 54.3975L43.5483 50.6147ZM41.9166 48.5L37.1272 52.2477L38.759 54.3625L43.5483 50.6147L48.3377 46.867L46.7059 44.7523L41.9166 48.5ZM43.5483 50.6147L38.7862 54.3975L41.587 57.9849L46.3491 54.2021L51.1112 50.4193L48.3105 46.8319L43.5483 50.6147Z" fill="#FF7828"/>
</svg>
