<svg width="63" height="62" viewBox="0 0 63 62" fill="none" xmlns="http://www.w3.org/2000/svg">
<path d="M21 38.5C30.665 38.5 38.5 30.665 38.5 21C38.5 11.335 30.665 3.5 21 3.5C11.335 3.5 3.5 11.335 3.5 21C3.5 30.665 11.335 38.5 21 38.5Z" stroke="#4A8BFF" stroke-width="7" stroke-linecap="round" stroke-linejoin="round"/>
<path d="M27.5 27.5L55.5 55.5" stroke="#4A8BFF" stroke-width="8" stroke-linecap="round" stroke-linejoin="round"/>
<path d="M50.9229 41.7368L46.1598 37.3139L37.3139 46.8402L42.0771 51.2632L46.5 46.5L50.9229 41.7368ZM51.6078 60.0415C54.2541 62.4673 58.3658 62.2885 60.7915 59.6422C63.2173 56.9959 63.0385 52.8842 60.3922 50.4585L56 55.25L51.6078 60.0415ZM50 49.75L45.5771 54.5132C45.5873 54.5226 45.5975 54.5321 45.6078 54.5415L50 49.75ZM46.5 46.5L42.0771 51.2632L45.5771 54.5132L50 49.75L54.4229 44.9868L50.9229 41.7368L46.5 46.5ZM50 49.75L45.6078 54.5415L51.6078 60.0415L56 55.25L60.3922 50.4585L54.3922 44.9585L50 49.75Z" fill="#1A6EEE"/>
</svg>
