<svg width="448" height="89" viewBox="0 0 448 89" fill="none" xmlns="http://www.w3.org/2000/svg">
<path d="M31.3721 43.2539L33.1299 39.9336V58H31.3721V43.2539ZM34.8877 36.5156L36.6455 33.1953V58H34.8877V36.5156ZM38.4033 29.875L40.1611 26.5303V58H38.4033V29.875ZM26.6113 42.4238L25.6104 40.5928L37.7197 17.5703H39.6973L26.6113 42.4238ZM24.585 38.5908L23.5596 36.7354L33.7158 17.5703H35.7178L24.585 38.5908ZM12.8174 40.1289L14.5752 43.4492V58H12.8174V40.1289ZM9.30176 33.4395L11.0596 36.7598V58H9.30176V33.4395ZM5.78613 26.75L7.54395 30.0947V58H5.78613V26.75ZM19.9951 47.4531H18.0176L4.02832 20.915V58H2.27051V17.5703H4.24805L19.9951 47.4531ZM23.9746 47.4531H21.9727L6.25 17.5703H8.25195L23.9746 47.4531ZM41.9189 20.915L27.9297 47.4531H25.9277L10.2295 17.5703H12.207L26.9531 45.5977L41.6748 17.5703H43.6768V58H41.9189V20.915ZM65.7715 46.1348L66.4795 44.377H72.4854L73.1934 46.1348H65.7715ZM64.4043 49.6504L65.0879 47.8926H73.8525L74.6094 49.6504H64.4043ZM63.0371 53.166L63.7207 51.4082H75.2441L75.9766 53.166H63.0371ZM48.7549 58H46.8506L62.8418 17.5703H64.7461L80.7129 58H78.833L63.7939 19.9385L48.7549 58ZM64.0137 24.1133L65.0146 26.3594L52.5146 58H50.6348L64.0137 24.1133ZM65.9668 28.752L66.8945 31.1689L56.3232 58H54.4189L65.9668 28.752ZM67.8223 33.5859L68.75 36.0518L60.083 58H58.2031L67.8223 33.5859ZM92.0654 58H90.1611L74.1943 17.5703H76.0742L92.0654 58ZM72.29 17.5703L88.2812 58H86.4014L70.4102 17.5703H72.29ZM68.5059 17.5703L84.4971 58H82.5928L66.626 17.5703H68.5059ZM107.446 58H105.688V17.5703H125.146V19.3281H107.446V21.0859H125.146V22.8438H107.446V24.6016H125.146V26.3594H107.446V35.1484H124.316V36.9062H107.446V38.6641H124.316V40.4219H107.446V42.1797H124.316V43.9375H107.446V58ZM103.931 58H102.173V17.5703H103.931V58ZM100.415 58H98.6572V17.5703H100.415V58ZM96.8994 58H95.1416V17.5703H96.8994V58Z" fill="#2F81FF"/>
<path d="M211.504 30.9492C209.616 32.8372 208.672 35.1159 208.672 37.7852C208.672 40.4544 209.616 42.7331 211.504 44.6211C213.392 46.5091 215.671 47.4531 218.34 47.4531C221.009 47.4531 223.288 46.5091 225.176 44.6211C227.064 42.7331 228.008 40.4544 228.008 37.7852C228.008 35.1159 227.064 32.8372 225.176 30.9492C223.288 29.0612 221.009 28.1172 218.34 28.1172C215.671 28.1172 213.392 29.0612 211.504 30.9492ZM207.817 42.2285C207.215 40.8125 206.914 39.3314 206.914 37.7852C206.914 36.2389 207.215 34.766 207.817 33.3662C208.42 31.9502 209.233 30.7295 210.259 29.7041C211.284 28.6787 212.497 27.8649 213.896 27.2627C215.312 26.6605 216.794 26.3594 218.34 26.3594C219.886 26.3594 221.359 26.6605 222.759 27.2627C224.175 27.8649 225.396 28.6787 226.421 29.7041C227.446 30.7295 228.26 31.9502 228.862 33.3662C229.465 34.766 229.766 36.2389 229.766 37.7852C229.766 39.3314 229.465 40.8125 228.862 42.2285C228.26 43.6283 227.446 44.8408 226.421 45.8662C225.396 46.8916 224.175 47.7054 222.759 48.3076C221.359 48.9098 219.886 49.2109 218.34 49.2109C216.794 49.2109 215.312 48.9098 213.896 48.3076C212.497 47.7054 211.284 46.8916 210.259 45.8662C209.233 44.8408 208.42 43.6283 207.817 42.2285ZM206.914 31.1689C205.742 33.1872 205.156 35.3926 205.156 37.7852C205.156 40.1777 205.742 42.3831 206.914 44.4014C208.102 46.4196 209.705 48.0228 211.724 49.2109C213.742 50.3828 215.947 50.9688 218.34 50.9688C220.732 50.9688 222.938 50.3828 224.956 49.2109C226.974 48.0228 228.569 46.4196 229.741 44.4014C230.929 42.3831 231.523 40.1777 231.523 37.7852C231.523 35.3926 230.929 33.1872 229.741 31.1689C228.569 29.1507 226.974 27.5557 224.956 26.3838C222.938 25.1956 220.732 24.6016 218.34 24.6016C215.947 24.6016 213.742 25.1956 211.724 26.3838C209.705 27.5557 208.102 29.1507 206.914 31.1689ZM205.4 45.2803C204.066 42.9854 203.398 40.487 203.398 37.7852C203.398 35.0833 204.066 32.585 205.4 30.29C206.735 27.9951 208.55 26.1803 210.845 24.8457C213.14 23.5111 215.638 22.8438 218.34 22.8438C221.042 22.8438 223.54 23.5111 225.835 24.8457C228.13 26.1803 229.945 27.9951 231.279 30.29C232.614 32.585 233.281 35.0833 233.281 37.7852C233.281 40.487 232.614 42.9854 231.279 45.2803C229.945 47.5752 228.13 49.39 225.835 50.7246C223.54 52.0592 221.042 52.7266 218.34 52.7266C215.638 52.7266 213.14 52.0592 210.845 50.7246C208.55 49.39 206.735 47.5752 205.4 45.2803ZM202.959 31.291C202.08 33.3581 201.641 35.5228 201.641 37.7852C201.641 40.0475 202.08 42.2122 202.959 44.2793C203.838 46.3464 205.018 48.1286 206.499 49.626C207.996 51.1071 209.779 52.2871 211.846 53.166C213.913 54.0449 216.077 54.4844 218.34 54.4844C220.602 54.4844 222.767 54.0449 224.834 53.166C226.901 52.2871 228.675 51.1071 230.156 49.626C231.654 48.1286 232.842 46.3464 233.721 44.2793C234.6 42.2122 235.039 40.0475 235.039 37.7852C235.039 35.5228 234.6 33.3581 233.721 31.291C232.842 29.224 231.654 27.4499 230.156 25.9688C228.675 24.4714 226.901 23.2832 224.834 22.4043C222.767 21.5254 220.602 21.0859 218.34 21.0859C216.077 21.0859 213.913 21.5254 211.846 22.4043C209.779 23.2832 207.996 24.4714 206.499 25.9688C205.018 27.4499 203.838 29.224 202.959 31.291ZM202.349 47.0381C200.705 44.2061 199.883 41.1217 199.883 37.7852C199.883 34.4486 200.705 31.3643 202.349 28.5322C204.009 25.7002 206.255 23.4622 209.087 21.8184C211.919 20.1582 215.003 19.3281 218.34 19.3281C221.676 19.3281 224.761 20.1582 227.593 21.8184C230.425 23.4622 232.663 25.7002 234.307 28.5322C235.967 31.3643 236.797 34.4486 236.797 37.7852C236.797 41.1217 235.967 44.2061 234.307 47.0381C232.663 49.8701 230.425 52.1162 227.593 53.7764C224.761 55.4202 221.676 56.2422 218.34 56.2422C215.003 56.2422 211.919 55.4202 209.087 53.7764C206.255 52.1162 204.009 49.8701 202.349 47.0381ZM199.712 29.9482C198.654 32.4385 198.125 35.0508 198.125 37.7852C198.125 40.5195 198.654 43.14 199.712 45.6465C200.786 48.1367 202.227 50.2852 204.033 52.0918C205.84 53.8984 207.988 55.3389 210.479 56.4131C212.985 57.471 215.605 58 218.34 58C221.074 58 223.687 57.471 226.177 56.4131C228.683 55.3389 230.84 53.8984 232.646 52.0918C234.453 50.2852 235.885 48.1367 236.943 45.6465C238.018 43.14 238.555 40.5195 238.555 37.7852C238.555 35.0508 238.018 32.4385 236.943 29.9482C235.885 27.4417 234.453 25.2852 232.646 23.4785C230.84 21.6719 228.683 20.2396 226.177 19.1816C223.687 18.1074 221.074 17.5703 218.34 17.5703C215.605 17.5703 212.985 18.1074 210.479 19.1816C207.988 20.2396 205.84 21.6719 204.033 23.4785C202.227 25.2852 200.786 27.4417 199.712 29.9482ZM198.101 46.3301C196.945 43.612 196.367 40.7637 196.367 37.7852C196.367 34.8066 196.945 31.9665 198.101 29.2646C199.272 26.5465 200.835 24.2109 202.788 22.2578C204.757 20.2884 207.093 18.7259 209.795 17.5703C212.513 16.3984 215.361 15.8125 218.34 15.8125C221.318 15.8125 224.159 16.3984 226.86 17.5703C229.578 18.7259 231.914 20.2884 233.867 22.2578C235.837 24.2109 237.399 26.5465 238.555 29.2646C239.727 31.9665 240.312 34.8066 240.312 37.7852C240.312 40.7637 239.727 43.612 238.555 46.3301C237.399 49.0319 235.837 51.3675 233.867 53.3369C231.914 55.29 229.578 56.8444 226.86 58C224.159 59.1719 221.318 59.7578 218.34 59.7578C215.361 59.7578 212.513 59.1719 209.795 58C207.093 56.8444 204.757 55.29 202.788 53.3369C200.835 51.3675 199.272 49.0319 198.101 46.3301ZM272.417 40.2266V17.5703H274.175V40.2266C274.175 42.7005 273.198 44.8164 271.245 46.5742C269.292 48.332 266.948 49.2109 264.214 49.2109C261.479 49.2109 259.136 48.332 257.183 46.5742C255.229 44.8164 254.253 42.7005 254.253 40.2266V17.5703H256.011V40.2266C256.011 42.2122 256.808 43.9131 258.403 45.3291C260.015 46.7451 261.951 47.4531 264.214 47.4531C266.476 47.4531 268.405 46.7451 270 45.3291C271.611 43.9131 272.417 42.2122 272.417 40.2266ZM275.933 40.2266V17.5703H277.69V40.2266C277.69 41.9193 277.332 43.5387 276.616 45.085C275.9 46.6149 274.94 47.9414 273.735 49.0645C272.531 50.1875 271.099 51.0827 269.438 51.75C267.778 52.401 266.037 52.7266 264.214 52.7266C262.391 52.7266 260.649 52.401 258.989 51.75C257.329 51.0827 255.897 50.1875 254.692 49.0645C253.488 47.9414 252.528 46.6149 251.812 45.085C251.095 43.5387 250.737 41.9193 250.737 40.2266V17.5703H252.495V40.2266C252.495 42.1634 253.016 43.9619 254.058 45.6221C255.116 47.266 256.54 48.568 258.33 49.5283C260.137 50.4886 262.098 50.9688 264.214 50.9688C266.33 50.9688 268.283 50.4886 270.073 49.5283C271.88 48.568 273.304 47.266 274.346 45.6221C275.404 43.9619 275.933 42.1634 275.933 40.2266ZM279.448 40.2266V17.5703H281.206V40.2266C281.206 42.3913 280.75 44.4665 279.839 46.4521C278.944 48.4215 277.739 50.1224 276.226 51.5547C274.712 52.987 272.905 54.1263 270.806 54.9727C268.706 55.819 266.509 56.2422 264.214 56.2422C261.919 56.2422 259.722 55.819 257.622 54.9727C255.522 54.1263 253.716 52.987 252.202 51.5547C250.688 50.1224 249.476 48.4215 248.564 46.4521C247.669 44.4665 247.222 42.3913 247.222 40.2266V17.5703H248.979V40.2266C248.979 42.7982 249.663 45.1826 251.03 47.3799C252.397 49.5609 254.245 51.2943 256.572 52.5801C258.916 53.8496 261.463 54.4844 264.214 54.4844C266.965 54.4844 269.504 53.8496 271.831 52.5801C274.175 51.2943 276.03 49.5609 277.397 47.3799C278.765 45.1826 279.448 42.7982 279.448 40.2266ZM282.964 40.2266V17.5703H284.722V40.2266C284.722 43.7422 283.802 47.0055 281.963 50.0166C280.124 53.0114 277.625 55.3877 274.468 57.1455C271.326 58.887 267.909 59.7578 264.214 59.7578C260.519 59.7578 257.093 58.887 253.936 57.1455C250.794 55.3877 248.304 53.0114 246.465 50.0166C244.626 47.0055 243.706 43.7422 243.706 40.2266V17.5703H245.464V40.2266C245.464 42.6191 245.96 44.9141 246.953 47.1113C247.946 49.3086 249.281 51.2048 250.957 52.7998C252.633 54.3786 254.627 55.64 256.938 56.584C259.266 57.528 261.691 58 264.214 58C266.737 58 269.154 57.528 271.465 56.584C273.792 55.64 275.794 54.3786 277.471 52.7998C279.147 51.2048 280.482 49.3086 281.475 47.1113C282.467 44.9141 282.964 42.6191 282.964 40.2266ZM299.761 47.4531V28.1172C299.761 28.1172 303.757 28.1172 311.748 28.1172C313.685 28.1172 315.345 29.0693 316.729 30.9736C318.128 32.8617 318.828 35.1322 318.828 37.7852C318.828 40.4544 318.128 42.7331 316.729 44.6211C315.345 46.5091 313.685 47.4531 311.748 47.4531H299.761ZM301.519 45.6953H311.748C313.197 45.6953 314.434 44.9222 315.459 43.376C316.501 41.8298 317.021 39.9661 317.021 37.7852C317.021 35.5879 316.501 33.7243 315.459 32.1943C314.434 30.6481 313.197 29.875 311.748 29.875H301.519V45.6953ZM298.003 49.2109H311.748C314.173 49.2109 316.257 48.096 317.998 45.8662C319.756 43.6201 320.635 40.9264 320.635 37.7852C320.635 35.7181 320.228 33.8057 319.414 32.0479C318.617 30.29 317.534 28.9066 316.167 27.8975C314.816 26.8721 313.343 26.3594 311.748 26.3594H298.003V49.2109ZM296.245 50.9688V24.6016H311.748C313.652 24.6016 315.426 25.1875 317.07 26.3594C318.714 27.5312 320.016 29.1344 320.977 31.1689C321.953 33.1872 322.441 35.3926 322.441 37.7852C322.441 40.1615 321.953 42.3669 320.977 44.4014C320.016 46.4359 318.714 48.0391 317.07 49.2109C315.426 50.3828 313.652 50.9688 311.748 50.9688H296.245ZM294.487 52.7266H311.748C313.978 52.7266 316.045 52.0592 317.949 50.7246C319.87 49.39 321.4 47.5752 322.539 45.2803C323.678 42.9854 324.248 40.487 324.248 37.7852C324.248 35.0996 323.678 32.6094 322.539 30.3145C321.4 28.0033 319.87 26.1803 317.949 24.8457C316.029 23.5111 313.962 22.8438 311.748 22.8438H294.487V52.7266ZM292.729 54.4844V21.0859H311.748C314.287 21.0859 316.655 21.8346 318.853 23.332C321.05 24.8132 322.799 26.8395 324.102 29.4111C325.404 31.9827 326.055 34.7741 326.055 37.7852C326.055 40.7962 325.404 43.5876 324.102 46.1592C322.799 48.7308 321.05 50.7653 318.853 52.2627C316.655 53.7438 314.287 54.4844 311.748 54.4844H292.729ZM290.972 56.2422H311.748C313.88 56.2422 315.939 55.7539 317.925 54.7773C319.91 53.8008 321.628 52.4906 323.076 50.8467C324.525 49.2028 325.68 47.2415 326.543 44.9629C327.422 42.668 327.861 40.2754 327.861 37.7852C327.861 35.2949 327.422 32.9105 326.543 30.6318C325.68 28.3532 324.525 26.3919 323.076 24.748C321.628 23.0879 319.91 21.7695 317.925 20.793C315.939 19.8164 313.88 19.3281 311.748 19.3281H290.972V56.2422ZM311.748 58H289.214V17.5703H311.748C314.922 17.5703 317.884 18.4736 320.635 20.2803C323.385 22.0869 325.575 24.5446 327.202 27.6533C328.846 30.762 329.668 34.1393 329.668 37.7852C329.668 40.5195 329.18 43.14 328.203 45.6465C327.243 48.1367 325.957 50.2852 324.346 52.0918C322.734 53.8984 320.822 55.3389 318.608 56.4131C316.411 57.471 314.124 58 311.748 58ZM348.467 46.1348L349.175 44.377H355.181L355.889 46.1348H348.467ZM347.1 49.6504L347.783 47.8926H356.548L357.305 49.6504H347.1ZM345.732 53.166L346.416 51.4082H357.939L358.672 53.166H345.732ZM331.45 58H329.546L345.537 17.5703H347.441L363.408 58H361.528L346.489 19.9385L331.45 58ZM346.709 24.1133L347.71 26.3594L335.21 58H333.33L346.709 24.1133ZM348.662 28.752L349.59 31.1689L339.019 58H337.114L348.662 28.752ZM350.518 33.5859L351.445 36.0518L342.778 58H340.898L350.518 33.5859ZM374.761 58H372.856L356.89 17.5703H358.77L374.761 58ZM354.985 17.5703L370.977 58H369.097L353.105 17.5703H354.985ZM351.201 17.5703L367.192 58H365.288L349.321 17.5703H351.201ZM377.056 19.3281V17.5703H403.423V19.3281H377.056ZM377.056 22.8438V21.0859H403.423V22.8438H377.056ZM377.056 26.3594V24.6016H403.423V26.3594H396.392V58H394.634V26.3594H392.876V58H391.118V26.3594H389.36V58H387.603V26.3594H385.845V58H384.087V26.3594H377.056Z" fill="#2F81FF"/>
<path d="M160.58 65.1605C174.708 65.1605 186.16 53.7078 186.16 39.5802C186.16 25.4527 174.708 14 160.58 14C146.453 14 135 25.4527 135 39.5802C135 53.7078 146.453 65.1605 160.58 65.1605Z" stroke="#2F81FF" stroke-width="2" stroke-linecap="round"/>
<path d="M160.58 61.5062C172.69 61.5062 182.506 51.6896 182.506 39.5802C182.506 27.4709 172.69 17.6543 160.58 17.6543C148.471 17.6543 138.654 27.4709 138.654 39.5802C138.654 51.6896 148.471 61.5062 160.58 61.5062Z" stroke="#2F81FF" stroke-width="2" stroke-linecap="round"/>
<path d="M160.58 57.8519C170.671 57.8519 178.852 49.6714 178.852 39.5802C178.852 29.4891 170.671 21.3086 160.58 21.3086C150.489 21.3086 142.309 29.4891 142.309 39.5802C142.309 49.6714 150.489 57.8519 160.58 57.8519Z" stroke="#2F81FF" stroke-width="2" stroke-linecap="round"/>
<path d="M160.58 54.1975C168.653 54.1975 175.198 47.6531 175.198 39.5802C175.198 31.5073 168.653 24.963 160.58 24.963C152.507 24.963 145.963 31.5073 145.963 39.5802C145.963 47.6531 152.507 54.1975 160.58 54.1975Z" stroke="#2F81FF" stroke-width="2" stroke-linecap="round"/>
<path d="M177.025 56.0247L199.864 78.8642" stroke="#2F81FF" stroke-width="2" stroke-linecap="round"/>
<path d="M178.852 57.8519L201.691 80.6914" stroke="#2F81FF" stroke-width="2" stroke-linecap="round"/>
<path d="M171.543 59.679L199.864 88" stroke="#2F81FF" stroke-width="2" stroke-linecap="round"/>
<path d="M174.284 57.8519L201.691 85.2593" stroke="#2F81FF" stroke-width="2" stroke-linecap="round"/>
<path d="M180.679 59.679L203.519 82.5185" stroke="#2F81FF" stroke-width="2" stroke-linecap="round"/>
</svg>
