<svg width="410" height="82" viewBox="0 0 410 82" fill="none" xmlns="http://www.w3.org/2000/svg">
<path d="M31.3721 47.2539L33.1299 43.9336V62H31.3721V47.2539ZM34.8877 40.5156L36.6455 37.1953V62H34.8877V40.5156ZM38.4033 33.875L40.1611 30.5303V62H38.4033V33.875ZM26.6113 46.4238L25.6104 44.5928L37.7197 21.5703H39.6973L26.6113 46.4238ZM24.585 42.5908L23.5596 40.7354L33.7158 21.5703H35.7178L24.585 42.5908ZM12.8174 44.1289L14.5752 47.4492V62H12.8174V44.1289ZM9.30176 37.4395L11.0596 40.7598V62H9.30176V37.4395ZM5.78613 30.75L7.54395 34.0947V62H5.78613V30.75ZM19.9951 51.4531H18.0176L4.02832 24.915V62H2.27051V21.5703H4.24805L19.9951 51.4531ZM23.9746 51.4531H21.9727L6.25 21.5703H8.25195L23.9746 51.4531ZM41.9189 24.915L27.9297 51.4531H25.9277L10.2295 21.5703H12.207L26.9531 49.5977L41.6748 21.5703H43.6768V62H41.9189V24.915ZM65.7715 50.1348L66.4795 48.377H72.4854L73.1934 50.1348H65.7715ZM64.4043 53.6504L65.0879 51.8926H73.8525L74.6094 53.6504H64.4043ZM63.0371 57.166L63.7207 55.4082H75.2441L75.9766 57.166H63.0371ZM48.7549 62H46.8506L62.8418 21.5703H64.7461L80.7129 62H78.833L63.7939 23.9385L48.7549 62ZM64.0137 28.1133L65.0146 30.3594L52.5146 62H50.6348L64.0137 28.1133ZM65.9668 32.752L66.8945 35.1689L56.3232 62H54.4189L65.9668 32.752ZM67.8223 37.5859L68.75 40.0518L60.083 62H58.2031L67.8223 37.5859ZM92.0654 62H90.1611L74.1943 21.5703H76.0742L92.0654 62ZM72.29 21.5703L88.2812 62H86.4014L70.4102 21.5703H72.29ZM68.5059 21.5703L84.4971 62H82.5928L66.626 21.5703H68.5059ZM107.446 62H105.688V21.5703H125.146V23.3281H107.446V25.0859H125.146V26.8438H107.446V28.6016H125.146V30.3594H107.446V39.1484H124.316V40.9062H107.446V42.6641H124.316V44.4219H107.446V46.1797H124.316V47.9375H107.446V62ZM103.931 62H102.173V21.5703H103.931V62ZM100.415 62H98.6572V21.5703H100.415V62ZM96.8994 62H95.1416V21.5703H96.8994V62Z" fill="#2F81FF"/>
<path d="M214.504 30.9492C212.616 32.8372 211.672 35.1159 211.672 37.7852C211.672 40.4544 212.616 42.7331 214.504 44.6211C216.392 46.5091 218.671 47.4531 221.34 47.4531C224.009 47.4531 226.288 46.5091 228.176 44.6211C230.064 42.7331 231.008 40.4544 231.008 37.7852C231.008 35.1159 230.064 32.8372 228.176 30.9492C226.288 29.0612 224.009 28.1172 221.34 28.1172C218.671 28.1172 216.392 29.0612 214.504 30.9492ZM210.817 42.2285C210.215 40.8125 209.914 39.3314 209.914 37.7852C209.914 36.2389 210.215 34.766 210.817 33.3662C211.42 31.9502 212.233 30.7295 213.259 29.7041C214.284 28.6787 215.497 27.8649 216.896 27.2627C218.312 26.6605 219.794 26.3594 221.34 26.3594C222.886 26.3594 224.359 26.6605 225.759 27.2627C227.175 27.8649 228.396 28.6787 229.421 29.7041C230.446 30.7295 231.26 31.9502 231.862 33.3662C232.465 34.766 232.766 36.2389 232.766 37.7852C232.766 39.3314 232.465 40.8125 231.862 42.2285C231.26 43.6283 230.446 44.8408 229.421 45.8662C228.396 46.8916 227.175 47.7054 225.759 48.3076C224.359 48.9098 222.886 49.2109 221.34 49.2109C219.794 49.2109 218.312 48.9098 216.896 48.3076C215.497 47.7054 214.284 46.8916 213.259 45.8662C212.233 44.8408 211.42 43.6283 210.817 42.2285ZM209.914 31.1689C208.742 33.1872 208.156 35.3926 208.156 37.7852C208.156 40.1777 208.742 42.3831 209.914 44.4014C211.102 46.4196 212.705 48.0228 214.724 49.2109C216.742 50.3828 218.947 50.9688 221.34 50.9688C223.732 50.9688 225.938 50.3828 227.956 49.2109C229.974 48.0228 231.569 46.4196 232.741 44.4014C233.929 42.3831 234.523 40.1777 234.523 37.7852C234.523 35.3926 233.929 33.1872 232.741 31.1689C231.569 29.1507 229.974 27.5557 227.956 26.3838C225.938 25.1956 223.732 24.6016 221.34 24.6016C218.947 24.6016 216.742 25.1956 214.724 26.3838C212.705 27.5557 211.102 29.1507 209.914 31.1689ZM208.4 45.2803C207.066 42.9854 206.398 40.487 206.398 37.7852C206.398 35.0833 207.066 32.585 208.4 30.29C209.735 27.9951 211.55 26.1803 213.845 24.8457C216.14 23.5111 218.638 22.8438 221.34 22.8438C224.042 22.8438 226.54 23.5111 228.835 24.8457C231.13 26.1803 232.945 27.9951 234.279 30.29C235.614 32.585 236.281 35.0833 236.281 37.7852C236.281 40.487 235.614 42.9854 234.279 45.2803C232.945 47.5752 231.13 49.39 228.835 50.7246C226.54 52.0592 224.042 52.7266 221.34 52.7266C218.638 52.7266 216.14 52.0592 213.845 50.7246C211.55 49.39 209.735 47.5752 208.4 45.2803ZM205.959 31.291C205.08 33.3581 204.641 35.5228 204.641 37.7852C204.641 40.0475 205.08 42.2122 205.959 44.2793C206.838 46.3464 208.018 48.1286 209.499 49.626C210.996 51.1071 212.779 52.2871 214.846 53.166C216.913 54.0449 219.077 54.4844 221.34 54.4844C223.602 54.4844 225.767 54.0449 227.834 53.166C229.901 52.2871 231.675 51.1071 233.156 49.626C234.654 48.1286 235.842 46.3464 236.721 44.2793C237.6 42.2122 238.039 40.0475 238.039 37.7852C238.039 35.5228 237.6 33.3581 236.721 31.291C235.842 29.224 234.654 27.4499 233.156 25.9688C231.675 24.4714 229.901 23.2832 227.834 22.4043C225.767 21.5254 223.602 21.0859 221.34 21.0859C219.077 21.0859 216.913 21.5254 214.846 22.4043C212.779 23.2832 210.996 24.4714 209.499 25.9688C208.018 27.4499 206.838 29.224 205.959 31.291ZM205.349 47.0381C203.705 44.2061 202.883 41.1217 202.883 37.7852C202.883 34.4486 203.705 31.3643 205.349 28.5322C207.009 25.7002 209.255 23.4622 212.087 21.8184C214.919 20.1582 218.003 19.3281 221.34 19.3281C224.676 19.3281 227.761 20.1582 230.593 21.8184C233.425 23.4622 235.663 25.7002 237.307 28.5322C238.967 31.3643 239.797 34.4486 239.797 37.7852C239.797 41.1217 238.967 44.2061 237.307 47.0381C235.663 49.8701 233.425 52.1162 230.593 53.7764C227.761 55.4202 224.676 56.2422 221.34 56.2422C218.003 56.2422 214.919 55.4202 212.087 53.7764C209.255 52.1162 207.009 49.8701 205.349 47.0381ZM202.712 29.9482C201.654 32.4385 201.125 35.0508 201.125 37.7852C201.125 40.5195 201.654 43.14 202.712 45.6465C203.786 48.1367 205.227 50.2852 207.033 52.0918C208.84 53.8984 210.988 55.3389 213.479 56.4131C215.985 57.471 218.605 58 221.34 58C224.074 58 226.687 57.471 229.177 56.4131C231.683 55.3389 233.84 53.8984 235.646 52.0918C237.453 50.2852 238.885 48.1367 239.943 45.6465C241.018 43.14 241.555 40.5195 241.555 37.7852C241.555 35.0508 241.018 32.4385 239.943 29.9482C238.885 27.4417 237.453 25.2852 235.646 23.4785C233.84 21.6719 231.683 20.2396 229.177 19.1816C226.687 18.1074 224.074 17.5703 221.34 17.5703C218.605 17.5703 215.985 18.1074 213.479 19.1816C210.988 20.2396 208.84 21.6719 207.033 23.4785C205.227 25.2852 203.786 27.4417 202.712 29.9482ZM201.101 46.3301C199.945 43.612 199.367 40.7637 199.367 37.7852C199.367 34.8066 199.945 31.9665 201.101 29.2646C202.272 26.5465 203.835 24.2109 205.788 22.2578C207.757 20.2884 210.093 18.7259 212.795 17.5703C215.513 16.3984 218.361 15.8125 221.34 15.8125C224.318 15.8125 227.159 16.3984 229.86 17.5703C232.578 18.7259 234.914 20.2884 236.867 22.2578C238.837 24.2109 240.399 26.5465 241.555 29.2646C242.727 31.9665 243.312 34.8066 243.312 37.7852C243.312 40.7637 242.727 43.612 241.555 46.3301C240.399 49.0319 238.837 51.3675 236.867 53.3369C234.914 55.29 232.578 56.8444 229.86 58C227.159 59.1719 224.318 59.7578 221.34 59.7578C218.361 59.7578 215.513 59.1719 212.795 58C210.093 56.8444 207.757 55.29 205.788 53.3369C203.835 51.3675 202.272 49.0319 201.101 46.3301ZM275.417 40.2266V17.5703H277.175V40.2266C277.175 42.7005 276.198 44.8164 274.245 46.5742C272.292 48.332 269.948 49.2109 267.214 49.2109C264.479 49.2109 262.136 48.332 260.183 46.5742C258.229 44.8164 257.253 42.7005 257.253 40.2266V17.5703H259.011V40.2266C259.011 42.2122 259.808 43.9131 261.403 45.3291C263.015 46.7451 264.951 47.4531 267.214 47.4531C269.476 47.4531 271.405 46.7451 273 45.3291C274.611 43.9131 275.417 42.2122 275.417 40.2266ZM278.933 40.2266V17.5703H280.69V40.2266C280.69 41.9193 280.332 43.5387 279.616 45.085C278.9 46.6149 277.94 47.9414 276.735 49.0645C275.531 50.1875 274.099 51.0827 272.438 51.75C270.778 52.401 269.037 52.7266 267.214 52.7266C265.391 52.7266 263.649 52.401 261.989 51.75C260.329 51.0827 258.897 50.1875 257.692 49.0645C256.488 47.9414 255.528 46.6149 254.812 45.085C254.095 43.5387 253.737 41.9193 253.737 40.2266V17.5703H255.495V40.2266C255.495 42.1634 256.016 43.9619 257.058 45.6221C258.116 47.266 259.54 48.568 261.33 49.5283C263.137 50.4886 265.098 50.9688 267.214 50.9688C269.33 50.9688 271.283 50.4886 273.073 49.5283C274.88 48.568 276.304 47.266 277.346 45.6221C278.404 43.9619 278.933 42.1634 278.933 40.2266ZM282.448 40.2266V17.5703H284.206V40.2266C284.206 42.3913 283.75 44.4665 282.839 46.4521C281.944 48.4215 280.739 50.1224 279.226 51.5547C277.712 52.987 275.905 54.1263 273.806 54.9727C271.706 55.819 269.509 56.2422 267.214 56.2422C264.919 56.2422 262.722 55.819 260.622 54.9727C258.522 54.1263 256.716 52.987 255.202 51.5547C253.688 50.1224 252.476 48.4215 251.564 46.4521C250.669 44.4665 250.222 42.3913 250.222 40.2266V17.5703H251.979V40.2266C251.979 42.7982 252.663 45.1826 254.03 47.3799C255.397 49.5609 257.245 51.2943 259.572 52.5801C261.916 53.8496 264.463 54.4844 267.214 54.4844C269.965 54.4844 272.504 53.8496 274.831 52.5801C277.175 51.2943 279.03 49.5609 280.397 47.3799C281.765 45.1826 282.448 42.7982 282.448 40.2266ZM285.964 40.2266V17.5703H287.722V40.2266C287.722 43.7422 286.802 47.0055 284.963 50.0166C283.124 53.0114 280.625 55.3877 277.468 57.1455C274.326 58.887 270.909 59.7578 267.214 59.7578C263.519 59.7578 260.093 58.887 256.936 57.1455C253.794 55.3877 251.304 53.0114 249.465 50.0166C247.626 47.0055 246.706 43.7422 246.706 40.2266V17.5703H248.464V40.2266C248.464 42.6191 248.96 44.9141 249.953 47.1113C250.946 49.3086 252.281 51.2048 253.957 52.7998C255.633 54.3786 257.627 55.64 259.938 56.584C262.266 57.528 264.691 58 267.214 58C269.737 58 272.154 57.528 274.465 56.584C276.792 55.64 278.794 54.3786 280.471 52.7998C282.147 51.2048 283.482 49.3086 284.475 47.1113C285.467 44.9141 285.964 42.6191 285.964 40.2266ZM302.761 47.4531V28.1172C302.761 28.1172 306.757 28.1172 314.748 28.1172C316.685 28.1172 318.345 29.0693 319.729 30.9736C321.128 32.8617 321.828 35.1322 321.828 37.7852C321.828 40.4544 321.128 42.7331 319.729 44.6211C318.345 46.5091 316.685 47.4531 314.748 47.4531H302.761ZM304.519 45.6953H314.748C316.197 45.6953 317.434 44.9222 318.459 43.376C319.501 41.8298 320.021 39.9661 320.021 37.7852C320.021 35.5879 319.501 33.7243 318.459 32.1943C317.434 30.6481 316.197 29.875 314.748 29.875H304.519V45.6953ZM301.003 49.2109H314.748C317.173 49.2109 319.257 48.096 320.998 45.8662C322.756 43.6201 323.635 40.9264 323.635 37.7852C323.635 35.7181 323.228 33.8057 322.414 32.0479C321.617 30.29 320.534 28.9066 319.167 27.8975C317.816 26.8721 316.343 26.3594 314.748 26.3594H301.003V49.2109ZM299.245 50.9688V24.6016H314.748C316.652 24.6016 318.426 25.1875 320.07 26.3594C321.714 27.5312 323.016 29.1344 323.977 31.1689C324.953 33.1872 325.441 35.3926 325.441 37.7852C325.441 40.1615 324.953 42.3669 323.977 44.4014C323.016 46.4359 321.714 48.0391 320.07 49.2109C318.426 50.3828 316.652 50.9688 314.748 50.9688H299.245ZM297.487 52.7266H314.748C316.978 52.7266 319.045 52.0592 320.949 50.7246C322.87 49.39 324.4 47.5752 325.539 45.2803C326.678 42.9854 327.248 40.487 327.248 37.7852C327.248 35.0996 326.678 32.6094 325.539 30.3145C324.4 28.0033 322.87 26.1803 320.949 24.8457C319.029 23.5111 316.962 22.8438 314.748 22.8438H297.487V52.7266ZM295.729 54.4844V21.0859H314.748C317.287 21.0859 319.655 21.8346 321.853 23.332C324.05 24.8132 325.799 26.8395 327.102 29.4111C328.404 31.9827 329.055 34.7741 329.055 37.7852C329.055 40.7962 328.404 43.5876 327.102 46.1592C325.799 48.7308 324.05 50.7653 321.853 52.2627C319.655 53.7438 317.287 54.4844 314.748 54.4844H295.729ZM293.972 56.2422H314.748C316.88 56.2422 318.939 55.7539 320.925 54.7773C322.91 53.8008 324.628 52.4906 326.076 50.8467C327.525 49.2028 328.68 47.2415 329.543 44.9629C330.422 42.668 330.861 40.2754 330.861 37.7852C330.861 35.2949 330.422 32.9105 329.543 30.6318C328.68 28.3532 327.525 26.3919 326.076 24.748C324.628 23.0879 322.91 21.7695 320.925 20.793C318.939 19.8164 316.88 19.3281 314.748 19.3281H293.972V56.2422ZM314.748 58H292.214V17.5703H314.748C317.922 17.5703 320.884 18.4736 323.635 20.2803C326.385 22.0869 328.575 24.5446 330.202 27.6533C331.846 30.762 332.668 34.1393 332.668 37.7852C332.668 40.5195 332.18 43.14 331.203 45.6465C330.243 48.1367 328.957 50.2852 327.346 52.0918C325.734 53.8984 323.822 55.3389 321.608 56.4131C319.411 57.471 317.124 58 314.748 58ZM351.467 46.1348L352.175 44.377H358.181L358.889 46.1348H351.467ZM350.1 49.6504L350.783 47.8926H359.548L360.305 49.6504H350.1ZM348.732 53.166L349.416 51.4082H360.939L361.672 53.166H348.732ZM334.45 58H332.546L348.537 17.5703H350.441L366.408 58H364.528L349.489 19.9385L334.45 58ZM349.709 24.1133L350.71 26.3594L338.21 58H336.33L349.709 24.1133ZM351.662 28.752L352.59 31.1689L342.019 58H340.114L351.662 28.752ZM353.518 33.5859L354.445 36.0518L345.778 58H343.898L353.518 33.5859ZM377.761 58H375.856L359.89 17.5703H361.77L377.761 58ZM357.985 17.5703L373.977 58H372.097L356.105 17.5703H357.985ZM354.201 17.5703L370.192 58H368.288L352.321 17.5703H354.201ZM380.056 19.3281V17.5703H406.423V19.3281H380.056ZM380.056 22.8438V21.0859H406.423V22.8438H380.056ZM380.056 26.3594V24.6016H406.423V26.3594H399.392V58H397.634V26.3594H395.876V58H394.118V26.3594H392.36V58H390.603V26.3594H388.845V58H387.087V26.3594H380.056Z" fill="#2F81FF"/>
<path d="M162.838 64.0909C176.556 64.0909 187.676 53.5492 187.676 40.5455C187.676 27.5417 176.556 17 162.838 17C149.12 17 138 27.5417 138 40.5455C138 53.5492 149.12 64.0909 162.838 64.0909Z" stroke="#2F81FF" stroke-width="2" stroke-linecap="round"/>
<path d="M162.838 60.7273C174.596 60.7273 184.128 51.6916 184.128 40.5455C184.128 29.3993 174.596 20.3636 162.838 20.3636C151.08 20.3636 141.548 29.3993 141.548 40.5455C141.548 51.6916 151.08 60.7273 162.838 60.7273Z" stroke="#2F81FF" stroke-width="2" stroke-linecap="round"/>
<path d="M162.838 57.3636C172.636 57.3636 180.579 49.8339 180.579 40.5455C180.579 31.257 172.636 23.7273 162.838 23.7273C153.04 23.7273 145.097 31.257 145.097 40.5455C145.097 49.8339 153.04 57.3636 162.838 57.3636Z" stroke="#2F81FF" stroke-width="2" stroke-linecap="round"/>
<path d="M178.805 55.6818L200.982 76.7046" stroke="#2F81FF" stroke-width="2" stroke-linecap="round"/>
<path d="M180.579 57.3636L202.756 78.3864" stroke="#2F81FF" stroke-width="2" stroke-linecap="round"/>
<path d="M182.354 59.0455L204.53 80.0682" stroke="#2F81FF" stroke-width="2" stroke-linecap="round"/>
</svg>
