<svg width="324" height="73" viewBox="0 0 324 73" fill="none" xmlns="http://www.w3.org/2000/svg">
<path d="M36.8 20.5C37.5667 20.5 38.2333 20.7833 38.8 21.35C39.3667 21.9167 39.65 22.5833 39.65 23.35V54.15C39.65 54.9167 39.3667 55.5833 38.8 56.15C38.2333 56.7167 37.5667 57 36.8 57H33.15C32.3833 57 31.7167 56.7167 31.15 56.15C30.5833 55.5833 30.3 54.9167 30.3 54.15V37.05C30.3 37.0167 30.2833 37 30.25 37C30.2167 37 30.2 37.0167 30.2 37.05L26.55 46.85C26.25 47.65 25.75 48.3 25.05 48.8C24.35 49.2667 23.5667 49.5 22.7 49.5H20.4C19.5333 49.5 18.75 49.2667 18.05 48.8C17.35 48.3 16.85 47.65 16.55 46.85L12.9 37.05C12.9 37.0167 12.8833 37 12.85 37C12.8167 37 12.8 37.0167 12.8 37.05V54.15C12.8 54.9167 12.5167 55.5833 11.95 56.15C11.3833 56.7167 10.7167 57 9.95 57H6.5C5.73333 57 5.06667 56.7167 4.5 56.15C3.93333 55.5833 3.65 54.9167 3.65 54.15V23.35C3.65 22.5833 3.93333 21.9167 4.5 21.35C5.06667 20.7833 5.73333 20.5 6.5 20.5H10.95C11.8167 20.5 12.6 20.75 13.3 21.25C14 21.7167 14.4833 22.35 14.75 23.15L21.5 41.95C21.5 41.9833 21.5167 42 21.55 42C21.5833 42 21.6 41.9833 21.6 41.95L28.35 23.15C28.6167 22.35 29.1 21.7167 29.8 21.25C30.5 20.75 31.2833 20.5 32.15 20.5H36.8ZM57.7605 42.5H62.9605C63.0605 42.5 63.1439 42.4667 63.2105 42.4C63.3105 42.3 63.3439 42.2 63.3105 42.1L60.4105 29.05C60.4105 29.0167 60.3939 29 60.3605 29C60.3272 29 60.3105 29.0167 60.3105 29.05L57.4105 42.1C57.3772 42.2 57.3939 42.3 57.4605 42.4C57.5605 42.4667 57.6605 42.5 57.7605 42.5ZM66.5605 23.2L76.3605 54.3C76.5605 54.9667 76.4439 55.5833 76.0105 56.15C75.6105 56.7167 75.0605 57 74.3605 57H69.4605C68.6272 57 67.8772 56.75 67.2105 56.25C66.5772 55.7167 66.1772 55.05 66.0105 54.25L65.1605 50.4C65.0939 50.1333 64.9272 50 64.6605 50H56.1105C55.7772 50 55.5939 50.1333 55.5605 50.4L54.7105 54.25C54.5439 55.05 54.1272 55.7167 53.4605 56.25C52.8272 56.75 52.0939 57 51.2605 57H46.5605C45.8605 57 45.2939 56.7167 44.8605 56.15C44.4605 55.5833 44.3605 54.9667 44.5605 54.3L54.3605 23.2C54.5939 22.4 55.0439 21.75 55.7105 21.25C56.4105 20.75 57.1939 20.5 58.0605 20.5H62.8605C63.6939 20.5 64.4439 20.75 65.1105 21.25C65.8105 21.75 66.2939 22.4 66.5605 23.2ZM101.4 20.5C102.166 20.5 102.833 20.7833 103.4 21.35C103.966 21.9167 104.25 22.5833 104.25 23.35V25.65C104.25 26.4167 103.966 27.0833 103.4 27.65C102.833 28.2167 102.166 28.5 101.4 28.5H91.1996C90.8996 28.5 90.7496 28.6333 90.7496 28.9V35.05C90.7496 35.35 90.8996 35.5 91.1996 35.5H100.4C101.166 35.5 101.833 35.7833 102.4 36.35C102.966 36.9167 103.25 37.5833 103.25 38.35V40.15C103.25 40.9167 102.966 41.5833 102.4 42.15C101.833 42.7167 101.166 43 100.4 43H91.1996C90.8996 43 90.7496 43.15 90.7496 43.45V54.15C90.7496 54.9167 90.4663 55.5833 89.8996 56.15C89.3329 56.7167 88.6663 57 87.8996 57H83.5996C82.8329 57 82.1663 56.7167 81.5996 56.15C81.0329 55.5833 80.7496 54.9167 80.7496 54.15V23.35C80.7496 22.5833 81.0329 21.9167 81.5996 21.35C82.1663 20.7833 82.8329 20.5 83.5996 20.5H101.4Z" fill="#2F81FF"/>
<path d="M187.85 37.75C187.85 29.0833 184.683 24.75 178.35 24.75C172.017 24.75 168.85 29.0833 168.85 37.75C168.85 46.4167 172.017 50.75 178.35 50.75C184.683 50.75 187.85 46.4167 187.85 37.75ZM190.5 51.55C187.533 54.85 183.483 56.5 178.35 56.5C173.217 56.5 169.15 54.85 166.15 51.55C163.183 48.25 161.7 43.65 161.7 37.75C161.7 31.85 163.183 27.25 166.15 23.95C169.15 20.65 173.217 19 178.35 19C183.483 19 187.533 20.65 190.5 23.95C193.5 27.25 195 31.85 195 37.75C195 43.65 193.5 48.25 190.5 51.55ZM227.169 43C227.169 52 222.669 56.5 213.669 56.5C204.669 56.5 200.169 52 200.169 43V22.35C200.169 21.5833 200.452 20.9167 201.019 20.35C201.585 19.7833 202.252 19.5 203.019 19.5H204.419C205.185 19.5 205.852 19.7833 206.419 20.35C206.985 20.9167 207.269 21.5833 207.269 22.35V43.4C207.269 46 207.785 47.8833 208.819 49.05C209.885 50.1833 211.535 50.75 213.769 50.75C216.002 50.75 217.635 50.1833 218.669 49.05C219.735 47.8833 220.269 46 220.269 43.4V22.35C220.269 21.5833 220.552 20.9167 221.119 20.35C221.685 19.7833 222.352 19.5 223.119 19.5H224.319C225.085 19.5 225.752 19.7833 226.319 20.35C226.885 20.9167 227.169 21.5833 227.169 22.35V43ZM241.505 25.3V50.2C241.505 50.4333 241.639 50.5833 241.905 50.65C242.972 50.8167 243.972 50.9 244.905 50.9C248.805 50.9 251.672 49.85 253.505 47.75C255.339 45.6167 256.255 42.1167 256.255 37.25C256.255 32.8833 255.322 29.6833 253.455 27.65C251.589 25.6167 248.739 24.6 244.905 24.6C243.972 24.6 242.972 24.6833 241.905 24.85C241.639 24.9167 241.505 25.0667 241.505 25.3ZM237.405 56.15C236.572 56.05 235.889 55.7 235.355 55.1C234.822 54.4667 234.555 53.7333 234.555 52.9V22.6C234.555 21.7667 234.822 21.05 235.355 20.45C235.889 19.8167 236.572 19.45 237.405 19.35C239.539 19.1167 241.922 19 244.555 19C250.489 19 255.022 20.55 258.155 23.65C261.322 26.75 262.905 31.2833 262.905 37.25C262.905 43.65 261.322 48.4667 258.155 51.7C255.022 54.9 250.489 56.5 244.555 56.5C241.922 56.5 239.539 56.3833 237.405 56.15ZM279.576 25.7L275.176 41.4C275.143 41.5 275.16 41.6 275.226 41.7C275.293 41.8 275.376 41.85 275.476 41.85H283.776C283.876 41.85 283.96 41.8 284.026 41.7C284.093 41.6 284.11 41.5 284.076 41.4L279.676 25.7C279.676 25.6667 279.66 25.65 279.626 25.65C279.593 25.65 279.576 25.6667 279.576 25.7ZM266.626 56C265.926 56 265.376 55.7167 264.976 55.15C264.576 54.5833 264.493 53.9667 264.726 53.3L275.076 22.2C275.376 21.4 275.86 20.75 276.526 20.25C277.226 19.75 277.993 19.5 278.826 19.5H280.626C281.493 19.5 282.26 19.75 282.926 20.25C283.626 20.75 284.11 21.4 284.376 22.2L294.726 53.3C294.96 53.9667 294.876 54.5833 294.476 55.15C294.076 55.7167 293.526 56 292.826 56H291.026C290.226 56 289.476 55.75 288.776 55.25C288.11 54.7167 287.66 54.05 287.426 53.25L285.826 47.6C285.793 47.3333 285.61 47.2 285.276 47.2H273.976C273.676 47.2 273.493 47.3333 273.426 47.6L271.826 53.25C271.626 54.05 271.176 54.7167 270.476 55.25C269.81 55.75 269.06 56 268.226 56H266.626ZM295.775 25.3C295.008 25.3 294.341 25.0333 293.775 24.5C293.208 23.9333 292.925 23.2667 292.925 22.5V22.35C292.925 21.5833 293.208 20.9167 293.775 20.35C294.341 19.7833 295.008 19.5 295.775 19.5H317.075C317.841 19.5 318.508 19.7833 319.075 20.35C319.641 20.9167 319.925 21.5833 319.925 22.35V22.5C319.925 23.2667 319.641 23.9333 319.075 24.5C318.508 25.0333 317.841 25.3 317.075 25.3H310.375C310.108 25.3 309.975 25.45 309.975 25.75V53.15C309.975 53.9167 309.691 54.5833 309.125 55.15C308.558 55.7167 307.891 56 307.125 56H305.725C304.958 56 304.291 55.7167 303.725 55.15C303.158 54.5833 302.875 53.9167 302.875 53.15V25.75C302.875 25.45 302.741 25.3 302.475 25.3H295.775Z" fill="#2F81FF"/>
<path d="M132.26 54.5205C141.793 54.5205 149.521 46.7929 149.521 37.2603C149.521 27.7277 141.793 20 132.26 20C122.728 20 115 27.7277 115 37.2603C115 46.7929 122.728 54.5205 132.26 54.5205Z" stroke="#0047B5" stroke-width="8" stroke-linecap="round" stroke-linejoin="round"/>
<path d="M144.589 49.589L160 65" stroke="#0047B5" stroke-width="8" stroke-linecap="round" stroke-linejoin="round"/>
</svg>
