<svg width="332" height="69" viewBox="0 0 332 69" fill="none" xmlns="http://www.w3.org/2000/svg">
<path d="M36.8 19.5C37.5667 19.5 38.2333 19.7833 38.8 20.35C39.3667 20.9167 39.65 21.5833 39.65 22.35V53.15C39.65 53.9167 39.3667 54.5833 38.8 55.15C38.2333 55.7167 37.5667 56 36.8 56H33.15C32.3833 56 31.7167 55.7167 31.15 55.15C30.5833 54.5833 30.3 53.9167 30.3 53.15V36.05C30.3 36.0167 30.2833 36 30.25 36C30.2167 36 30.2 36.0167 30.2 36.05L26.55 45.85C26.25 46.65 25.75 47.3 25.05 47.8C24.35 48.2667 23.5667 48.5 22.7 48.5H20.4C19.5333 48.5 18.75 48.2667 18.05 47.8C17.35 47.3 16.85 46.65 16.55 45.85L12.9 36.05C12.9 36.0167 12.8833 36 12.85 36C12.8167 36 12.8 36.0167 12.8 36.05V53.15C12.8 53.9167 12.5167 54.5833 11.95 55.15C11.3833 55.7167 10.7167 56 9.95 56H6.5C5.73333 56 5.06667 55.7167 4.5 55.15C3.93333 54.5833 3.65 53.9167 3.65 53.15V22.35C3.65 21.5833 3.93333 20.9167 4.5 20.35C5.06667 19.7833 5.73333 19.5 6.5 19.5H10.95C11.8167 19.5 12.6 19.75 13.3 20.25C14 20.7167 14.4833 21.35 14.75 22.15L21.5 40.95C21.5 40.9833 21.5167 41 21.55 41C21.5833 41 21.6 40.9833 21.6 40.95L28.35 22.15C28.6167 21.35 29.1 20.7167 29.8 20.25C30.5 19.75 31.2833 19.5 32.15 19.5H36.8ZM57.7605 41.5H62.9605C63.0605 41.5 63.1439 41.4667 63.2105 41.4C63.3105 41.3 63.3439 41.2 63.3105 41.1L60.4105 28.05C60.4105 28.0167 60.3939 28 60.3605 28C60.3272 28 60.3105 28.0167 60.3105 28.05L57.4105 41.1C57.3772 41.2 57.3939 41.3 57.4605 41.4C57.5605 41.4667 57.6605 41.5 57.7605 41.5ZM66.5605 22.2L76.3605 53.3C76.5605 53.9667 76.4439 54.5833 76.0105 55.15C75.6105 55.7167 75.0605 56 74.3605 56H69.4605C68.6272 56 67.8772 55.75 67.2105 55.25C66.5772 54.7167 66.1772 54.05 66.0105 53.25L65.1605 49.4C65.0939 49.1333 64.9272 49 64.6605 49H56.1105C55.7772 49 55.5939 49.1333 55.5605 49.4L54.7105 53.25C54.5439 54.05 54.1272 54.7167 53.4605 55.25C52.8272 55.75 52.0939 56 51.2605 56H46.5605C45.8605 56 45.2939 55.7167 44.8605 55.15C44.4605 54.5833 44.3605 53.9667 44.5605 53.3L54.3605 22.2C54.5939 21.4 55.0439 20.75 55.7105 20.25C56.4105 19.75 57.1939 19.5 58.0605 19.5H62.8605C63.6939 19.5 64.4439 19.75 65.1105 20.25C65.8105 20.75 66.2939 21.4 66.5605 22.2ZM101.4 19.5C102.166 19.5 102.833 19.7833 103.4 20.35C103.966 20.9167 104.25 21.5833 104.25 22.35V24.65C104.25 25.4167 103.966 26.0833 103.4 26.65C102.833 27.2167 102.166 27.5 101.4 27.5H91.1996C90.8996 27.5 90.7496 27.6333 90.7496 27.9V34.05C90.7496 34.35 90.8996 34.5 91.1996 34.5H100.4C101.166 34.5 101.833 34.7833 102.4 35.35C102.966 35.9167 103.25 36.5833 103.25 37.35V39.15C103.25 39.9167 102.966 40.5833 102.4 41.15C101.833 41.7167 101.166 42 100.4 42H91.1996C90.8996 42 90.7496 42.15 90.7496 42.45V53.15C90.7496 53.9167 90.4663 54.5833 89.8996 55.15C89.3329 55.7167 88.6663 56 87.8996 56H83.5996C82.8329 56 82.1663 55.7167 81.5996 55.15C81.0329 54.5833 80.7496 53.9167 80.7496 53.15V22.35C80.7496 21.5833 81.0329 20.9167 81.5996 20.35C82.1663 19.7833 82.8329 19.5 83.5996 19.5H101.4Z" fill="#2F81FF"/>
<path d="M170.65 37.75C170.65 44.75 173.067 48.25 177.9 48.25C182.733 48.25 185.15 44.75 185.15 37.75C185.15 30.75 182.733 27.25 177.9 27.25C173.067 27.25 170.65 30.75 170.65 37.75ZM165.1 24C168.233 20.6667 172.5 19 177.9 19C183.3 19 187.567 20.6667 190.7 24C193.833 27.3333 195.4 31.9167 195.4 37.75C195.4 43.5833 193.833 48.1667 190.7 51.5C187.567 54.8333 183.3 56.5 177.9 56.5C172.5 56.5 168.233 54.8333 165.1 51.5C161.967 48.1667 160.4 43.5833 160.4 37.75C160.4 31.9167 161.967 27.3333 165.1 24ZM226.093 19.5C226.86 19.5 227.526 19.7833 228.093 20.35C228.66 20.9167 228.943 21.5833 228.943 22.35V42.5C228.943 47.1667 227.71 50.6667 225.243 53C222.776 55.3333 219.176 56.5 214.443 56.5C209.71 56.5 206.11 55.3333 203.643 53C201.176 50.6667 199.943 47.1667 199.943 42.5V22.35C199.943 21.5833 200.226 20.9167 200.793 20.35C201.36 19.7833 202.026 19.5 202.793 19.5H207.193C207.96 19.5 208.626 19.7833 209.193 20.35C209.76 20.9167 210.043 21.5833 210.043 22.35V43.25C210.043 45.1833 210.393 46.55 211.093 47.35C211.793 48.1167 212.943 48.5 214.543 48.5C216.143 48.5 217.293 48.1167 217.993 47.35C218.693 46.55 219.043 45.1833 219.043 43.25V22.35C219.043 21.5833 219.326 20.9167 219.893 20.35C220.46 19.7833 221.126 19.5 221.893 19.5H226.093ZM247.746 48.75C250.579 48.75 252.696 47.85 254.096 46.05C255.529 44.25 256.246 41.3167 256.246 37.25C256.246 33.5833 255.529 30.9167 254.096 29.25C252.696 27.5833 250.579 26.75 247.746 26.75C247.112 26.75 246.496 26.8 245.896 26.9C245.629 26.9667 245.496 27.1333 245.496 27.4V48.05C245.496 48.35 245.629 48.5333 245.896 48.6C246.496 48.7 247.112 48.75 247.746 48.75ZM246.746 19C252.746 19 257.412 20.6167 260.746 23.85C264.079 27.05 265.746 31.5167 265.746 37.25C265.746 43.4833 264.062 48.25 260.696 51.55C257.362 54.85 252.712 56.5 246.746 56.5C244.112 56.5 241.379 56.3667 238.546 56.1C237.746 56.0333 237.079 55.6833 236.546 55.05C236.012 54.4167 235.746 53.7 235.746 52.9V22.6C235.746 21.8 236.012 21.0833 236.546 20.45C237.079 19.8167 237.746 19.4667 238.546 19.4C241.379 19.1333 244.112 19 246.746 19ZM280.091 41.5H285.291C285.391 41.5 285.474 41.4667 285.541 41.4C285.641 41.3 285.674 41.2 285.641 41.1L282.741 28.05C282.741 28.0167 282.724 28 282.691 28C282.657 28 282.641 28.0167 282.641 28.05L279.741 41.1C279.707 41.2 279.724 41.3 279.791 41.4C279.891 41.4667 279.991 41.5 280.091 41.5ZM288.891 22.2L298.691 53.3C298.891 53.9667 298.774 54.5833 298.341 55.15C297.941 55.7167 297.391 56 296.691 56H291.791C290.957 56 290.207 55.75 289.541 55.25C288.907 54.7167 288.507 54.05 288.341 53.25L287.491 49.4C287.424 49.1333 287.257 49 286.991 49H278.441C278.107 49 277.924 49.1333 277.891 49.4L277.041 53.25C276.874 54.05 276.457 54.7167 275.791 55.25C275.157 55.75 274.424 56 273.591 56H268.891C268.191 56 267.624 55.7167 267.191 55.15C266.791 54.5833 266.691 53.9667 266.891 53.3L276.691 22.2C276.924 21.4 277.374 20.75 278.041 20.25C278.741 19.75 279.524 19.5 280.391 19.5H285.191C286.024 19.5 286.774 19.75 287.441 20.25C288.141 20.75 288.624 21.4 288.891 22.2ZM322.462 19.5C323.229 19.5 323.895 19.7833 324.462 20.35C325.029 20.9167 325.312 21.5833 325.312 22.35V24.9C325.312 25.6667 325.029 26.3333 324.462 26.9C323.895 27.4667 323.229 27.75 322.462 27.75H316.362C316.062 27.75 315.912 27.9 315.912 28.2V53.15C315.912 53.9167 315.629 54.5833 315.062 55.15C314.529 55.7167 313.879 56 313.112 56H308.512C307.745 56 307.079 55.7167 306.512 55.15C305.979 54.5833 305.712 53.9167 305.712 53.15V28.2C305.712 27.9 305.562 27.75 305.262 27.75H299.162C298.395 27.75 297.729 27.4667 297.162 26.9C296.595 26.3333 296.312 25.6667 296.312 24.9V22.35C296.312 21.5833 296.595 20.9167 297.162 20.35C297.729 19.7833 298.395 19.5 299.162 19.5H322.462Z" fill="#2F81FF"/>
<path d="M131.26 54.5205C140.793 54.5205 148.521 46.7929 148.521 37.2603C148.521 27.7277 140.793 20 131.26 20C121.728 20 114 27.7277 114 37.2603C114 46.7929 121.728 54.5205 131.26 54.5205Z" stroke="#4887E9" stroke-width="8" stroke-linecap="round" stroke-linejoin="round"/>
<path d="M143.589 49.589L159 65" stroke="#4887E9" stroke-width="8" stroke-linecap="round" stroke-linejoin="round"/>
</svg>
