<svg width="328" height="79" viewBox="0 0 328 79" fill="none" xmlns="http://www.w3.org/2000/svg">
<path d="M129.5 55C139.165 55 147 47.165 147 37.5C147 27.835 139.165 20 129.5 20C119.835 20 112 27.835 112 37.5C112 47.165 119.835 55 129.5 55Z" stroke="url(#paint0_linear_20_146)" stroke-width="7" stroke-linecap="round" stroke-linejoin="round"/>
<path d="M136 44L164 72" stroke="url(#paint1_linear_20_146)" stroke-width="8" stroke-linecap="round" stroke-linejoin="round"/>
<path d="M159.423 58.2368L154.66 53.8139L145.814 63.3402L150.577 67.7632L155 63L159.423 58.2368ZM160.108 76.5415C162.754 78.9673 166.866 78.7885 169.292 76.1422C171.717 73.4959 171.538 69.3842 168.892 66.9585L164.5 71.75L160.108 76.5415ZM158.5 66.25L154.077 71.0132C154.087 71.0226 154.098 71.0321 154.108 71.0415L158.5 66.25ZM155 63L150.577 67.7632L154.077 71.0132L158.5 66.25L162.923 61.4868L159.423 58.2368L155 63ZM158.5 66.25L154.108 71.0415L160.108 76.5415L164.5 71.75L168.892 66.9585L162.892 61.4585L158.5 66.25Z" fill="url(#paint2_linear_20_146)"/>
<path d="M136.988 31.5492C135.545 29.5471 133.367 28.1998 130.931 27.804C128.495 27.4081 126.002 27.996 124 29.4383" stroke="url(#paint3_linear_20_146)" stroke-width="3" stroke-linecap="round"/>
<g clip-path="url(#paint4_diamond_20_146_clip_path)" data-figma-skip-parse="true"><g transform="matrix(0 0.0275 -0.054 0 54 27.5)"><rect x="0" y="0" width="1036.36" height="1018.52" fill="url(#paint4_diamond_20_146)" opacity="1" shape-rendering="crispEdges"/><rect x="0" y="0" width="1036.36" height="1018.52" transform="scale(1 -1)" fill="url(#paint4_diamond_20_146)" opacity="1" shape-rendering="crispEdges"/><rect x="0" y="0" width="1036.36" height="1018.52" transform="scale(-1 1)" fill="url(#paint4_diamond_20_146)" opacity="1" shape-rendering="crispEdges"/><rect x="0" y="0" width="1036.36" height="1018.52" transform="scale(-1)" fill="url(#paint4_diamond_20_146)" opacity="1" shape-rendering="crispEdges"/></g></g><path d="M36.8 19.5C37.5667 19.5 38.2333 19.7833 38.8 20.35C39.3667 20.9167 39.65 21.5833 39.65 22.35V53.15C39.65 53.9167 39.3667 54.5833 38.8 55.15C38.2333 55.7167 37.5667 56 36.8 56H33.15C32.3833 56 31.7167 55.7167 31.15 55.15C30.5833 54.5833 30.3 53.9167 30.3 53.15V36.05C30.3 36.0167 30.2833 36 30.25 36C30.2167 36 30.2 36.0167 30.2 36.05L26.55 45.85C26.25 46.65 25.75 47.3 25.05 47.8C24.35 48.2667 23.5667 48.5 22.7 48.5H20.4C19.5333 48.5 18.75 48.2667 18.05 47.8C17.35 47.3 16.85 46.65 16.55 45.85L12.9 36.05C12.9 36.0167 12.8833 36 12.85 36C12.8167 36 12.8 36.0167 12.8 36.05V53.15C12.8 53.9167 12.5167 54.5833 11.95 55.15C11.3833 55.7167 10.7167 56 9.95 56H6.5C5.73333 56 5.06667 55.7167 4.5 55.15C3.93333 54.5833 3.65 53.9167 3.65 53.15V22.35C3.65 21.5833 3.93333 20.9167 4.5 20.35C5.06667 19.7833 5.73333 19.5 6.5 19.5H10.95C11.8167 19.5 12.6 19.75 13.3 20.25C14 20.7167 14.4833 21.35 14.75 22.15L21.5 40.95C21.5 40.9833 21.5167 41 21.55 41C21.5833 41 21.6 40.9833 21.6 40.95L28.35 22.15C28.6167 21.35 29.1 20.7167 29.8 20.25C30.5 19.75 31.2833 19.5 32.15 19.5H36.8ZM57.7605 41.5H62.9605C63.0605 41.5 63.1439 41.4667 63.2105 41.4C63.3105 41.3 63.3439 41.2 63.3105 41.1L60.4105 28.05C60.4105 28.0167 60.3939 28 60.3605 28C60.3272 28 60.3105 28.0167 60.3105 28.05L57.4105 41.1C57.3772 41.2 57.3939 41.3 57.4605 41.4C57.5605 41.4667 57.6605 41.5 57.7605 41.5ZM66.5605 22.2L76.3605 53.3C76.5605 53.9667 76.4439 54.5833 76.0105 55.15C75.6105 55.7167 75.0605 56 74.3605 56H69.4605C68.6272 56 67.8772 55.75 67.2105 55.25C66.5772 54.7167 66.1772 54.05 66.0105 53.25L65.1605 49.4C65.0939 49.1333 64.9272 49 64.6605 49H56.1105C55.7772 49 55.5939 49.1333 55.5605 49.4L54.7105 53.25C54.5439 54.05 54.1272 54.7167 53.4605 55.25C52.8272 55.75 52.0939 56 51.2605 56H46.5605C45.8605 56 45.2939 55.7167 44.8605 55.15C44.4605 54.5833 44.3605 53.9667 44.5605 53.3L54.3605 22.2C54.5939 21.4 55.0439 20.75 55.7105 20.25C56.4105 19.75 57.1939 19.5 58.0605 19.5H62.8605C63.6939 19.5 64.4439 19.75 65.1105 20.25C65.8105 20.75 66.2939 21.4 66.5605 22.2ZM101.4 19.5C102.166 19.5 102.833 19.7833 103.4 20.35C103.966 20.9167 104.25 21.5833 104.25 22.35V24.65C104.25 25.4167 103.966 26.0833 103.4 26.65C102.833 27.2167 102.166 27.5 101.4 27.5H91.1996C90.8996 27.5 90.7496 27.6333 90.7496 27.9V34.05C90.7496 34.35 90.8996 34.5 91.1996 34.5H100.4C101.166 34.5 101.833 34.7833 102.4 35.35C102.966 35.9167 103.25 36.5833 103.25 37.35V39.15C103.25 39.9167 102.966 40.5833 102.4 41.15C101.833 41.7167 101.166 42 100.4 42H91.1996C90.8996 42 90.7496 42.15 90.7496 42.45V53.15C90.7496 53.9167 90.4663 54.5833 89.8996 55.15C89.3329 55.7167 88.6663 56 87.8996 56H83.5996C82.8329 56 82.1663 55.7167 81.5996 55.15C81.0329 54.5833 80.7496 53.9167 80.7496 53.15V22.35C80.7496 21.5833 81.0329 20.9167 81.5996 20.35C82.1663 19.7833 82.8329 19.5 83.5996 19.5H101.4Z" data-figma-gradient-fill="{&#34;type&#34;:&#34;GRADIENT_DIAMOND&#34;,&#34;stops&#34;:[{&#34;color&#34;:{&#34;r&#34;:0.20392157137393951,&#34;g&#34;:0.59607845544815063,&#34;b&#34;:0.85882353782653809,&#34;a&#34;:1.0},&#34;position&#34;:0.99989998340606689},{&#34;color&#34;:{&#34;r&#34;:1.0,&#34;g&#34;:0.47058823704719543,&#34;b&#34;:0.15686275064945221,&#34;a&#34;:1.0},&#34;position&#34;:1.0}],&#34;stopsVar&#34;:[{&#34;color&#34;:{&#34;r&#34;:0.20392157137393951,&#34;g&#34;:0.59607845544815063,&#34;b&#34;:0.85882353782653809,&#34;a&#34;:1.0},&#34;position&#34;:0.99989998340606689},{&#34;color&#34;:{&#34;r&#34;:1.0,&#34;g&#34;:0.47058823704719543,&#34;b&#34;:0.15686275064945221,&#34;a&#34;:1.0},&#34;position&#34;:1.0}],&#34;transform&#34;:{&#34;m00&#34;:6.6130928451412288e-15,&#34;m01&#34;:-108.0,&#34;m02&#34;:108.0,&#34;m10&#34;:55.0,&#34;m11&#34;:3.3677788578441014e-15,&#34;m12&#34;:-3.3677788578441014e-15},&#34;opacity&#34;:1.0,&#34;blendMode&#34;:&#34;NORMAL&#34;,&#34;visible&#34;:true}"/>
<g clip-path="url(#paint5_diamond_20_146_clip_path)" data-figma-skip-parse="true"><g transform="matrix(0 0.029 -0.0865 0 241.5 29)"><rect x="0" y="0" width="1034.48" height="1011.56" fill="url(#paint5_diamond_20_146)" opacity="1" shape-rendering="crispEdges"/><rect x="0" y="0" width="1034.48" height="1011.56" transform="scale(1 -1)" fill="url(#paint5_diamond_20_146)" opacity="1" shape-rendering="crispEdges"/><rect x="0" y="0" width="1034.48" height="1011.56" transform="scale(-1 1)" fill="url(#paint5_diamond_20_146)" opacity="1" shape-rendering="crispEdges"/><rect x="0" y="0" width="1034.48" height="1011.56" transform="scale(-1)" fill="url(#paint5_diamond_20_146)" opacity="1" shape-rendering="crispEdges"/></g></g><path d="M166.65 37.75C166.65 44.75 169.067 48.25 173.9 48.25C178.733 48.25 181.15 44.75 181.15 37.75C181.15 30.75 178.733 27.25 173.9 27.25C169.067 27.25 166.65 30.75 166.65 37.75ZM161.1 24C164.233 20.6667 168.5 19 173.9 19C179.3 19 183.567 20.6667 186.7 24C189.833 27.3333 191.4 31.9167 191.4 37.75C191.4 43.5833 189.833 48.1667 186.7 51.5C183.567 54.8333 179.3 56.5 173.9 56.5C168.5 56.5 164.233 54.8333 161.1 51.5C157.967 48.1667 156.4 43.5833 156.4 37.75C156.4 31.9167 157.967 27.3333 161.1 24ZM222.093 19.5C222.86 19.5 223.526 19.7833 224.093 20.35C224.66 20.9167 224.943 21.5833 224.943 22.35V42.5C224.943 47.1667 223.71 50.6667 221.243 53C218.776 55.3333 215.176 56.5 210.443 56.5C205.71 56.5 202.11 55.3333 199.643 53C197.176 50.6667 195.943 47.1667 195.943 42.5V22.35C195.943 21.5833 196.226 20.9167 196.793 20.35C197.36 19.7833 198.026 19.5 198.793 19.5H203.193C203.96 19.5 204.626 19.7833 205.193 20.35C205.76 20.9167 206.043 21.5833 206.043 22.35V43.25C206.043 45.1833 206.393 46.55 207.093 47.35C207.793 48.1167 208.943 48.5 210.543 48.5C212.143 48.5 213.293 48.1167 213.993 47.35C214.693 46.55 215.043 45.1833 215.043 43.25V22.35C215.043 21.5833 215.326 20.9167 215.893 20.35C216.46 19.7833 217.126 19.5 217.893 19.5H222.093ZM243.746 48.75C246.579 48.75 248.696 47.85 250.096 46.05C251.529 44.25 252.246 41.3167 252.246 37.25C252.246 33.5833 251.529 30.9167 250.096 29.25C248.696 27.5833 246.579 26.75 243.746 26.75C243.112 26.75 242.496 26.8 241.896 26.9C241.629 26.9667 241.496 27.1333 241.496 27.4V48.05C241.496 48.35 241.629 48.5333 241.896 48.6C242.496 48.7 243.112 48.75 243.746 48.75ZM242.746 19C248.746 19 253.412 20.6167 256.746 23.85C260.079 27.05 261.746 31.5167 261.746 37.25C261.746 43.4833 260.062 48.25 256.696 51.55C253.362 54.85 248.712 56.5 242.746 56.5C240.112 56.5 237.379 56.3667 234.546 56.1C233.746 56.0333 233.079 55.6833 232.546 55.05C232.012 54.4167 231.746 53.7 231.746 52.9V22.6C231.746 21.8 232.012 21.0833 232.546 20.45C233.079 19.8167 233.746 19.4667 234.546 19.4C237.379 19.1333 240.112 19 242.746 19ZM276.091 41.5H281.291C281.391 41.5 281.474 41.4667 281.541 41.4C281.641 41.3 281.674 41.2 281.641 41.1L278.741 28.05C278.741 28.0167 278.724 28 278.691 28C278.657 28 278.641 28.0167 278.641 28.05L275.741 41.1C275.707 41.2 275.724 41.3 275.791 41.4C275.891 41.4667 275.991 41.5 276.091 41.5ZM284.891 22.2L294.691 53.3C294.891 53.9667 294.774 54.5833 294.341 55.15C293.941 55.7167 293.391 56 292.691 56H287.791C286.957 56 286.207 55.75 285.541 55.25C284.907 54.7167 284.507 54.05 284.341 53.25L283.491 49.4C283.424 49.1333 283.257 49 282.991 49H274.441C274.107 49 273.924 49.1333 273.891 49.4L273.041 53.25C272.874 54.05 272.457 54.7167 271.791 55.25C271.157 55.75 270.424 56 269.591 56H264.891C264.191 56 263.624 55.7167 263.191 55.15C262.791 54.5833 262.691 53.9667 262.891 53.3L272.691 22.2C272.924 21.4 273.374 20.75 274.041 20.25C274.741 19.75 275.524 19.5 276.391 19.5H281.191C282.024 19.5 282.774 19.75 283.441 20.25C284.141 20.75 284.624 21.4 284.891 22.2ZM318.462 19.5C319.229 19.5 319.895 19.7833 320.462 20.35C321.029 20.9167 321.312 21.5833 321.312 22.35V24.9C321.312 25.6667 321.029 26.3333 320.462 26.9C319.895 27.4667 319.229 27.75 318.462 27.75H312.362C312.062 27.75 311.912 27.9 311.912 28.2V53.15C311.912 53.9167 311.629 54.5833 311.062 55.15C310.529 55.7167 309.879 56 309.112 56H304.512C303.745 56 303.079 55.7167 302.512 55.15C301.979 54.5833 301.712 53.9167 301.712 53.15V28.2C301.712 27.9 301.562 27.75 301.262 27.75H295.162C294.395 27.75 293.729 27.4667 293.162 26.9C292.595 26.3333 292.312 25.6667 292.312 24.9V22.35C292.312 21.5833 292.595 20.9167 293.162 20.35C293.729 19.7833 294.395 19.5 295.162 19.5H318.462Z" data-figma-gradient-fill="{&#34;type&#34;:&#34;GRADIENT_DIAMOND&#34;,&#34;stops&#34;:[{&#34;color&#34;:{&#34;r&#34;:1.0,&#34;g&#34;:0.47058823704719543,&#34;b&#34;:0.15686275064945221,&#34;a&#34;:1.0},&#34;position&#34;:0.99989998340606689},{&#34;color&#34;:{&#34;r&#34;:0.20392157137393951,&#34;g&#34;:0.59607845544815063,&#34;b&#34;:0.85882353782653809,&#34;a&#34;:1.0},&#34;position&#34;:1.0}],&#34;stopsVar&#34;:[{&#34;color&#34;:{&#34;r&#34;:1.0,&#34;g&#34;:0.47058823704719543,&#34;b&#34;:0.15686275064945221,&#34;a&#34;:1.0},&#34;position&#34;:0.99989998340606689},{&#34;color&#34;:{&#34;r&#34;:0.20392157137393951,&#34;g&#34;:0.59607845544815063,&#34;b&#34;:0.85882353782653809,&#34;a&#34;:1.0},&#34;position&#34;:1.0}],&#34;transform&#34;:{&#34;m00&#34;:1.0593195632203727e-14,&#34;m01&#34;:-173.0,&#34;m02&#34;:328.0,&#34;m10&#34;:58.0,&#34;m11&#34;:3.5514759519063256e-15,&#34;m12&#34;:-3.5514759519063256e-15},&#34;opacity&#34;:1.0,&#34;blendMode&#34;:&#34;NORMAL&#34;,&#34;visible&#34;:true}"/>
<defs>
<clipPath id="paint4_diamond_20_146_clip_path"><path d="M36.8 19.5C37.5667 19.5 38.2333 19.7833 38.8 20.35C39.3667 20.9167 39.65 21.5833 39.65 22.35V53.15C39.65 53.9167 39.3667 54.5833 38.8 55.15C38.2333 55.7167 37.5667 56 36.8 56H33.15C32.3833 56 31.7167 55.7167 31.15 55.15C30.5833 54.5833 30.3 53.9167 30.3 53.15V36.05C30.3 36.0167 30.2833 36 30.25 36C30.2167 36 30.2 36.0167 30.2 36.05L26.55 45.85C26.25 46.65 25.75 47.3 25.05 47.8C24.35 48.2667 23.5667 48.5 22.7 48.5H20.4C19.5333 48.5 18.75 48.2667 18.05 47.8C17.35 47.3 16.85 46.65 16.55 45.85L12.9 36.05C12.9 36.0167 12.8833 36 12.85 36C12.8167 36 12.8 36.0167 12.8 36.05V53.15C12.8 53.9167 12.5167 54.5833 11.95 55.15C11.3833 55.7167 10.7167 56 9.95 56H6.5C5.73333 56 5.06667 55.7167 4.5 55.15C3.93333 54.5833 3.65 53.9167 3.65 53.15V22.35C3.65 21.5833 3.93333 20.9167 4.5 20.35C5.06667 19.7833 5.73333 19.5 6.5 19.5H10.95C11.8167 19.5 12.6 19.75 13.3 20.25C14 20.7167 14.4833 21.35 14.75 22.15L21.5 40.95C21.5 40.9833 21.5167 41 21.55 41C21.5833 41 21.6 40.9833 21.6 40.95L28.35 22.15C28.6167 21.35 29.1 20.7167 29.8 20.25C30.5 19.75 31.2833 19.5 32.15 19.5H36.8ZM57.7605 41.5H62.9605C63.0605 41.5 63.1439 41.4667 63.2105 41.4C63.3105 41.3 63.3439 41.2 63.3105 41.1L60.4105 28.05C60.4105 28.0167 60.3939 28 60.3605 28C60.3272 28 60.3105 28.0167 60.3105 28.05L57.4105 41.1C57.3772 41.2 57.3939 41.3 57.4605 41.4C57.5605 41.4667 57.6605 41.5 57.7605 41.5ZM66.5605 22.2L76.3605 53.3C76.5605 53.9667 76.4439 54.5833 76.0105 55.15C75.6105 55.7167 75.0605 56 74.3605 56H69.4605C68.6272 56 67.8772 55.75 67.2105 55.25C66.5772 54.7167 66.1772 54.05 66.0105 53.25L65.1605 49.4C65.0939 49.1333 64.9272 49 64.6605 49H56.1105C55.7772 49 55.5939 49.1333 55.5605 49.4L54.7105 53.25C54.5439 54.05 54.1272 54.7167 53.4605 55.25C52.8272 55.75 52.0939 56 51.2605 56H46.5605C45.8605 56 45.2939 55.7167 44.8605 55.15C44.4605 54.5833 44.3605 53.9667 44.5605 53.3L54.3605 22.2C54.5939 21.4 55.0439 20.75 55.7105 20.25C56.4105 19.75 57.1939 19.5 58.0605 19.5H62.8605C63.6939 19.5 64.4439 19.75 65.1105 20.25C65.8105 20.75 66.2939 21.4 66.5605 22.2ZM101.4 19.5C102.166 19.5 102.833 19.7833 103.4 20.35C103.966 20.9167 104.25 21.5833 104.25 22.35V24.65C104.25 25.4167 103.966 26.0833 103.4 26.65C102.833 27.2167 102.166 27.5 101.4 27.5H91.1996C90.8996 27.5 90.7496 27.6333 90.7496 27.9V34.05C90.7496 34.35 90.8996 34.5 91.1996 34.5H100.4C101.166 34.5 101.833 34.7833 102.4 35.35C102.966 35.9167 103.25 36.5833 103.25 37.35V39.15C103.25 39.9167 102.966 40.5833 102.4 41.15C101.833 41.7167 101.166 42 100.4 42H91.1996C90.8996 42 90.7496 42.15 90.7496 42.45V53.15C90.7496 53.9167 90.4663 54.5833 89.8996 55.15C89.3329 55.7167 88.6663 56 87.8996 56H83.5996C82.8329 56 82.1663 55.7167 81.5996 55.15C81.0329 54.5833 80.7496 53.9167 80.7496 53.15V22.35C80.7496 21.5833 81.0329 20.9167 81.5996 20.35C82.1663 19.7833 82.8329 19.5 83.5996 19.5H101.4Z"/></clipPath><clipPath id="paint5_diamond_20_146_clip_path"><path d="M166.65 37.75C166.65 44.75 169.067 48.25 173.9 48.25C178.733 48.25 181.15 44.75 181.15 37.75C181.15 30.75 178.733 27.25 173.9 27.25C169.067 27.25 166.65 30.75 166.65 37.75ZM161.1 24C164.233 20.6667 168.5 19 173.9 19C179.3 19 183.567 20.6667 186.7 24C189.833 27.3333 191.4 31.9167 191.4 37.75C191.4 43.5833 189.833 48.1667 186.7 51.5C183.567 54.8333 179.3 56.5 173.9 56.5C168.5 56.5 164.233 54.8333 161.1 51.5C157.967 48.1667 156.4 43.5833 156.4 37.75C156.4 31.9167 157.967 27.3333 161.1 24ZM222.093 19.5C222.86 19.5 223.526 19.7833 224.093 20.35C224.66 20.9167 224.943 21.5833 224.943 22.35V42.5C224.943 47.1667 223.71 50.6667 221.243 53C218.776 55.3333 215.176 56.5 210.443 56.5C205.71 56.5 202.11 55.3333 199.643 53C197.176 50.6667 195.943 47.1667 195.943 42.5V22.35C195.943 21.5833 196.226 20.9167 196.793 20.35C197.36 19.7833 198.026 19.5 198.793 19.5H203.193C203.96 19.5 204.626 19.7833 205.193 20.35C205.76 20.9167 206.043 21.5833 206.043 22.35V43.25C206.043 45.1833 206.393 46.55 207.093 47.35C207.793 48.1167 208.943 48.5 210.543 48.5C212.143 48.5 213.293 48.1167 213.993 47.35C214.693 46.55 215.043 45.1833 215.043 43.25V22.35C215.043 21.5833 215.326 20.9167 215.893 20.35C216.46 19.7833 217.126 19.5 217.893 19.5H222.093ZM243.746 48.75C246.579 48.75 248.696 47.85 250.096 46.05C251.529 44.25 252.246 41.3167 252.246 37.25C252.246 33.5833 251.529 30.9167 250.096 29.25C248.696 27.5833 246.579 26.75 243.746 26.75C243.112 26.75 242.496 26.8 241.896 26.9C241.629 26.9667 241.496 27.1333 241.496 27.4V48.05C241.496 48.35 241.629 48.5333 241.896 48.6C242.496 48.7 243.112 48.75 243.746 48.75ZM242.746 19C248.746 19 253.412 20.6167 256.746 23.85C260.079 27.05 261.746 31.5167 261.746 37.25C261.746 43.4833 260.062 48.25 256.696 51.55C253.362 54.85 248.712 56.5 242.746 56.5C240.112 56.5 237.379 56.3667 234.546 56.1C233.746 56.0333 233.079 55.6833 232.546 55.05C232.012 54.4167 231.746 53.7 231.746 52.9V22.6C231.746 21.8 232.012 21.0833 232.546 20.45C233.079 19.8167 233.746 19.4667 234.546 19.4C237.379 19.1333 240.112 19 242.746 19ZM276.091 41.5H281.291C281.391 41.5 281.474 41.4667 281.541 41.4C281.641 41.3 281.674 41.2 281.641 41.1L278.741 28.05C278.741 28.0167 278.724 28 278.691 28C278.657 28 278.641 28.0167 278.641 28.05L275.741 41.1C275.707 41.2 275.724 41.3 275.791 41.4C275.891 41.4667 275.991 41.5 276.091 41.5ZM284.891 22.2L294.691 53.3C294.891 53.9667 294.774 54.5833 294.341 55.15C293.941 55.7167 293.391 56 292.691 56H287.791C286.957 56 286.207 55.75 285.541 55.25C284.907 54.7167 284.507 54.05 284.341 53.25L283.491 49.4C283.424 49.1333 283.257 49 282.991 49H274.441C274.107 49 273.924 49.1333 273.891 49.4L273.041 53.25C272.874 54.05 272.457 54.7167 271.791 55.25C271.157 55.75 270.424 56 269.591 56H264.891C264.191 56 263.624 55.7167 263.191 55.15C262.791 54.5833 262.691 53.9667 262.891 53.3L272.691 22.2C272.924 21.4 273.374 20.75 274.041 20.25C274.741 19.75 275.524 19.5 276.391 19.5H281.191C282.024 19.5 282.774 19.75 283.441 20.25C284.141 20.75 284.624 21.4 284.891 22.2ZM318.462 19.5C319.229 19.5 319.895 19.7833 320.462 20.35C321.029 20.9167 321.312 21.5833 321.312 22.35V24.9C321.312 25.6667 321.029 26.3333 320.462 26.9C319.895 27.4667 319.229 27.75 318.462 27.75H312.362C312.062 27.75 311.912 27.9 311.912 28.2V53.15C311.912 53.9167 311.629 54.5833 311.062 55.15C310.529 55.7167 309.879 56 309.112 56H304.512C303.745 56 303.079 55.7167 302.512 55.15C301.979 54.5833 301.712 53.9167 301.712 53.15V28.2C301.712 27.9 301.562 27.75 301.262 27.75H295.162C294.395 27.75 293.729 27.4667 293.162 26.9C292.595 26.3333 292.312 25.6667 292.312 24.9V22.35C292.312 21.5833 292.595 20.9167 293.162 20.35C293.729 19.7833 294.395 19.5 295.162 19.5H318.462Z"/></clipPath><linearGradient id="paint0_linear_20_146" x1="129.5" y1="20" x2="129.5" y2="55" gradientUnits="userSpaceOnUse">
<stop offset="0.9999" stop-color="#3498DB"/>
<stop offset="1" stop-color="#FF7828"/>
</linearGradient>
<linearGradient id="paint1_linear_20_146" x1="150" y1="44" x2="150" y2="72" gradientUnits="userSpaceOnUse">
<stop offset="0.9999" stop-color="#3498DB"/>
<stop offset="1" stop-color="#FF7828"/>
</linearGradient>
<linearGradient id="paint2_linear_20_146" x1="159.75" y1="63" x2="159.75" y2="71.75" gradientUnits="userSpaceOnUse">
<stop offset="0.9999" stop-color="#3498DB"/>
<stop offset="1" stop-color="#FF7828"/>
</linearGradient>
<linearGradient id="paint3_linear_20_146" x1="127.775" y1="26.7192" x2="133.213" y2="34.2684" gradientUnits="userSpaceOnUse">
<stop offset="0.9999" stop-color="#3498DB"/>
<stop offset="1" stop-color="#FF7828"/>
</linearGradient>
<linearGradient id="paint4_diamond_20_146" x1="0" y1="0" x2="500" y2="500" gradientUnits="userSpaceOnUse">
<stop offset="0.9999" stop-color="#3498DB"/>
<stop offset="1" stop-color="#FF7828"/>
</linearGradient>
<linearGradient id="paint5_diamond_20_146" x1="0" y1="0" x2="500" y2="500" gradientUnits="userSpaceOnUse">
<stop offset="0.9999" stop-color="#FF7828"/>
<stop offset="1" stop-color="#3498DB"/>
</linearGradient>
</defs>
</svg>
