<?xml version="1.0" encoding="iso-8859-1"?>
<!-- Uploaded to: SVG Repo, www.svgrepo.com, Generator: SVG Repo Mixer Tools -->
<svg height="800px" width="800px" version="1.1" id="Layer_1" xmlns="http://www.w3.org/2000/svg" xmlns:xlink="http://www.w3.org/1999/xlink" 
	 viewBox="0 0 512.001 512.001" xml:space="preserve">
<path style="fill:#E2E2E2;" d="M164.542,347.311c-9.886-9.884-25.914-9.886-35.8,0l-96.661,96.661
	c-9.886,9.886-9.755,26.045,0.132,35.931c4.943,4.943,11.343,7.336,17.821,7.336c6.477,0,12.904-2.526,17.847-7.468l96.662-96.661
	C174.428,373.224,174.428,357.197,164.542,347.311z"/>
<path style="fill:#D5494F;" d="M392.198,343.006c0-25.439-6.617-49.485-19.006-70.693l90.462-90.462l5.097,5.097
	c4.943,4.943,11.562,7.274,18.041,7.274s12.887-2.401,17.83-7.345c9.886-9.886,9.815-25.844-0.071-35.729L361.298,7.895
	c-9.886-9.886-25.915-9.886-35.8,0c-9.886,9.886-9.886,25.914,0,35.8l4.504,4.504l-90.545,90.543
	c-21.369-12.5-45.657-19.42-70.943-19.42c-38.135,0-74.041,14.044-101.006,41.009L7.361,220.479
	c-9.886,9.886-9.778,27.529,0.106,37.415l247.02,247.02c4.943,4.943,11.368,6.607,17.847,6.607c6.479,0,12.904-3.279,17.847-8.222
	l60.147-60.147C377.293,416.186,392.198,381.141,392.198,343.006z"/>
<path style="fill:#CFCFCF;" d="M164.542,347.311c-0.449-0.449-0.923-0.854-1.396-1.262L30.828,478.367
	c0.444,0.523,0.894,1.041,1.387,1.534c4.943,4.943,11.343,7.338,17.821,7.338c6.477,0,12.904-2.526,17.847-7.468l96.661-96.661
	C174.428,373.224,174.428,357.197,164.542,347.311z"/>
<path style="fill:#C61623;" d="M392.198,343.006c0-25.439-6.617-49.485-19.006-70.693l90.462-90.462l5.097,5.097
	c4.943,4.943,11.562,7.274,18.041,7.274s12.887-2.401,17.83-7.345c9.886-9.886,9.815-25.844-0.071-35.729l-73.252-73.252
	L129.385,379.809l125.102,125.102c4.943,4.943,11.368,6.607,17.847,6.607s12.904-3.279,17.847-8.222l60.147-60.147
	C377.293,416.186,392.198,381.141,392.198,343.006z"/>
</svg>